<svg width="128" height="128" viewBox="0 0 128 128" fill="none" xmlns="http://www.w3.org/2000/svg">
<g clip-path="url(#clip0_601_41)">
<path d="M64 128C99.3462 128 128 99.3462 128 64C128 28.6538 99.3462 0 64 0C28.6538 0 0 28.6538 0 64C0 99.3462 28.6538 128 64 128Z" fill="#DA30F8"/>
<path fill-rule="evenodd" clip-rule="evenodd" d="M49.4729 78.4039H25.5996V59.8304C25.5996 40.9565 40.869 25.6001 59.6381 25.6001H78.5281V49.596H102.4V68.1696C102.4 87.0452 87.1302 102.4 68.3611 102.4H49.4729V78.4039ZM78.4378 49.6987H59.6381C54.0829 49.6987 49.5633 54.2432 49.5633 59.8304V78.3013H68.3629C73.9181 78.3013 78.4378 73.7568 78.4378 68.1696V49.6987Z" fill="#F6F6F0"/>
</g>
<defs>
<clipPath id="clip0_601_41">
<rect width="128" height="128" fill="white"/>
</clipPath>
</defs>
</svg>
