<svg width="128" height="128" viewBox="0 0 128 128" fill="none" xmlns="http://www.w3.org/2000/svg">
<path d="M64 128C99.3462 128 128 99.3462 128 64C128 28.6538 99.3462 0 64 0C28.6538 0 0 28.6538 0 64C0 99.3462 28.6538 128 64 128Z" fill="#333333"/>
<path d="M63.4247 47.8385C59.3098 47.8385 55.3635 49.4732 52.4539 52.3829C49.5442 55.2925 47.9102 59.2388 47.9102 63.3537V95.7488C48.1081 97.4469 48.8194 99.0442 49.9488 100.328C51.0782 101.611 52.572 102.52 54.2312 102.932C57.5469 103.738 60.9461 104.148 64.3585 104.153C74.9729 104.041 85.1214 99.7742 92.6273 92.2683C100.133 84.7624 104.4 74.6145 104.512 64.0001C104.513 60.5874 104.102 57.1869 103.29 53.8722C102.887 52.2083 101.982 50.7089 100.697 49.5779C99.4115 48.4469 97.809 47.7392 96.1074 47.5511L63.4247 47.8385Z" fill="#FF5E69"/>
<path d="M23.7761 63.282C23.6803 67.0874 24.1396 70.8865 25.1404 74.5592C25.5593 76.1818 26.4788 77.6309 27.7683 78.7011C29.0577 79.7714 30.6515 80.4081 32.3234 80.521H64.6466C68.7615 80.521 72.7078 78.8865 75.6174 75.9769C78.5271 73.0672 80.162 69.1207 80.162 65.0058V32.6826C80.0467 30.8331 79.3429 29.0691 78.1541 27.6476C76.9652 26.2262 75.3533 25.222 73.5534 24.7815C70.1863 23.9978 66.7393 23.6121 63.2823 23.6322C52.8606 23.8887 42.9388 28.1527 35.5808 35.5375C28.2227 42.9223 23.9947 52.8595 23.7761 63.282V63.282Z" fill="#0089B8"/>
<path d="M63.4247 47.8384C59.3098 47.8384 55.3635 49.4731 52.4539 52.3828C49.5442 55.2924 47.9102 59.2387 47.9102 63.3536V80.3771H64.7899C68.9048 80.3771 72.8511 78.7424 75.7607 75.8328C78.6704 72.9231 80.3053 68.9768 80.3053 64.8619V47.6948L63.4247 47.8384Z" fill="white"/>
</svg>
