<svg width="147" height="147" viewBox="0 0 147 147" fill="none" xmlns="http://www.w3.org/2000/svg">
<g clip-path="url(#clip0_1930_15)">
<path d="M147 73.5C147 32.9071 114.093 0 73.5 0C32.9071 0 0 32.9071 0 73.5C0 114.093 32.9071 147 73.5 147C114.093 147 147 114.093 147 73.5Z" fill="#F4EBFA"/>
<path d="M118.037 135.415C118.037 140.721 97.144 145.023 71.3711 145.023C45.5982 145.023 24.7051 140.721 24.7051 135.415C24.7051 130.109 45.5982 127.017 71.3711 127.017C97.144 127.017 118.037 130.109 118.037 135.415Z" fill="#404040"/>
<path d="M134.921 108.156C136.619 105.129 135.557 101.329 132.55 99.6701C130.725 98.6628 128.606 98.6811 126.84 99.5222C126.629 97.5904 125.527 95.7945 123.702 94.7875C120.695 93.128 116.882 94.2362 115.184 97.2641C114.944 97.6929 114.765 98.1383 114.633 98.5899C112.737 103.736 115.163 111.607 118.138 115.042C122.649 115.738 130.669 113.631 134.075 109.32C134.393 108.971 134.68 108.585 134.921 108.156Z" fill="#DD87DA"/>
<path d="M134.954 105.25C136.652 102.223 135.59 98.4235 132.583 96.7643C130.758 95.7571 128.639 95.7753 126.873 96.6164C126.662 94.6846 125.56 92.8887 123.736 91.8817C120.728 90.2222 116.915 91.3305 115.217 94.3583C114.977 94.7872 114.798 95.2325 114.666 95.6841C112.771 100.83 115.196 108.701 118.171 112.136C122.682 112.832 130.702 110.726 134.108 106.414C134.427 106.065 134.714 105.68 134.954 105.25Z" fill="#404040"/>
<path d="M47.3675 114.515C46.1699 113.449 44.3509 113.552 43.3047 114.744C42.6696 115.468 42.468 116.426 42.6726 117.305C41.7803 117.209 40.8611 117.528 40.2261 118.252C39.1798 119.444 39.3021 121.274 40.4999 122.34C40.6695 122.491 40.8527 122.616 41.0434 122.72C43.177 124.084 46.9677 123.769 48.812 122.767C49.5724 120.802 49.4164 116.975 47.8087 115.012C47.6829 114.834 47.5373 114.666 47.3675 114.515Z" fill="#DD87DA"/>
<path d="M46.0599 114.213C44.8623 113.147 43.0433 113.25 41.9971 114.442C41.362 115.166 41.1604 116.123 41.365 117.003C40.4727 116.907 39.5534 117.226 38.9185 117.95C37.8722 119.142 37.9945 120.972 39.1923 122.038C39.3619 122.188 39.5451 122.313 39.7358 122.417C41.8694 123.782 45.6601 123.467 47.5044 122.465C48.2648 120.499 48.1088 116.673 46.5011 114.709C46.3753 114.531 46.2297 114.364 46.0599 114.213Z" fill="#404040"/>
<path d="M29.2153 94.5394C29.0038 94.249 28.6341 94.12 28.2882 94.2168L18.2973 97.0121L20.9192 84.173C21.0016 83.7692 20.7872 83.3634 20.4066 83.2053C20.2227 83.1281 20.025 83.1199 19.8446 83.1704C19.6518 83.2243 19.4781 83.3462 19.3607 83.523L14.7534 90.4839L5.56477 104.367C5.36664 104.667 5.3746 105.059 5.58609 105.349C5.79758 105.639 6.16674 105.769 6.5126 105.673L16.5035 102.877L13.8816 115.716C13.7992 116.12 14.0136 116.526 14.3942 116.684C14.5781 116.761 14.7758 116.77 14.9562 116.719C15.149 116.665 15.3227 116.543 15.4401 116.367L20.0474 109.406L29.236 95.5222C29.435 95.2225 29.4262 94.8308 29.2153 94.5394Z" fill="#DD87DA"/>
<path d="M27.3017 95.0599C27.0903 94.7695 26.7205 94.6405 26.3746 94.7373L16.3837 97.5326L19.0056 84.6936C19.088 84.2897 18.8737 83.8839 18.4931 83.7258C18.3091 83.6486 18.1114 83.6404 17.931 83.6909C17.7383 83.7448 17.5645 83.8667 17.4471 84.0435L12.8399 91.0044L3.6512 104.888C3.45306 105.187 3.46103 105.579 3.67252 105.87C3.88401 106.16 4.25317 106.29 4.59902 106.193L14.5899 103.398L11.968 116.237C11.8856 116.641 12.1 117.047 12.4806 117.205C12.6646 117.282 12.8622 117.29 13.0426 117.24C13.2354 117.186 13.4092 117.064 13.5265 116.887L18.1338 109.926L27.3225 96.0427C27.5214 95.743 27.5126 95.3513 27.3017 95.0599Z" fill="#404040"/>
<path d="M96.0907 117.543C96.0526 117.383 95.9192 117.263 95.7562 117.243L91.0483 116.665L94.4135 111.708C94.5193 111.553 94.5002 111.344 94.3675 111.21C94.3034 111.145 94.2214 111.107 94.1364 111.096C94.0456 111.085 93.9508 111.106 93.8702 111.16L90.7013 113.287L84.3811 117.529C84.2448 117.621 84.1792 117.787 84.2174 117.947C84.2555 118.107 84.3884 118.227 84.5514 118.247L89.2594 118.825L85.8942 123.782C85.7883 123.938 85.8074 124.147 85.9402 124.28C86.0042 124.345 86.0862 124.383 86.1712 124.394C86.2621 124.405 86.3568 124.384 86.4375 124.33L89.6064 122.203L95.9266 117.961C96.0632 117.87 96.1285 117.703 96.0907 117.543Z" fill="#DD87DA"/>
<path d="M95.1928 117.425C95.1546 117.265 95.0213 117.146 94.8583 117.126L90.1503 116.548L93.5155 111.591C93.6214 111.435 93.6023 111.226 93.4695 111.092C93.4055 111.027 93.3235 110.989 93.2385 110.979C93.1476 110.967 93.0529 110.988 92.9722 111.042L89.8033 113.169L83.4831 117.411C83.3468 117.503 83.2812 117.67 83.3194 117.83C83.3576 117.989 83.4905 118.109 83.6535 118.129L88.3614 118.707L84.9962 123.664C84.8904 123.82 84.9094 124.029 85.0422 124.163C85.1063 124.228 85.1883 124.266 85.2733 124.276C85.3641 124.287 85.4589 124.267 85.5395 124.213L88.7084 122.086L95.0286 117.843C95.1653 117.752 95.2305 117.585 95.1928 117.425Z" fill="#404040"/>
<g clip-path="url(#clip1_1930_15)">
<mask id="mask0_1930_15" style="mask-type:luminance" maskUnits="userSpaceOnUse" x="39" y="18" width="69" height="69">
<path d="M108 18H39V87H108V18Z" fill="white"/>
</mask>
<g mask="url(#mask0_1930_15)">
<path d="M73.5 87C92.5538 87 108 71.5538 108 52.5C108 33.4462 92.5538 18 73.5 18C54.4462 18 39 33.4462 39 52.5C39 71.5538 54.4462 87 73.5 87Z" fill="#DA30F8"/>
<path fill-rule="evenodd" clip-rule="evenodd" d="M65.6694 60.2646H52.8V50.2523C52.8 40.0782 61.0313 31.8 71.1491 31.8H81.3318V44.7354H94.2001V54.7477C94.2001 64.9227 85.969 73.1999 75.8512 73.1999H65.6694V60.2646ZM81.2832 44.7906H71.1491C68.1544 44.7906 65.718 47.2404 65.718 50.2523V60.2093H75.8521C78.8467 60.2093 81.2832 57.7595 81.2832 54.7477V44.7906Z" fill="#F6F6F0"/>
</g>
</g>
</g>
<defs>
<clipPath id="clip0_1930_15">
<rect width="147" height="147" fill="white"/>
</clipPath>
<clipPath id="clip1_1930_15">
<rect width="69" height="69" fill="white" transform="translate(39 18)"/>
</clipPath>
</defs>
</svg>
