<svg width="787" height="641" viewBox="0 0 787 641" fill="none" xmlns="http://www.w3.org/2000/svg">
<rect width="787" height="641" rx="20" fill="#F7F2F7"/>
<g filter="url(#filter0_d_5702_120407)">
<rect x="30" y="30" width="727" height="576" rx="10" fill="white"/>
<path d="M80.3207 184.224C79.4481 184.224 78.6291 184.07 77.8637 183.762C77.0984 183.454 76.4241 183.027 75.8407 182.481C75.2574 181.93 74.8024 181.293 74.4757 180.57C74.1491 179.847 73.9857 179.07 73.9857 178.239C73.9857 177.404 74.1491 176.624 74.4757 175.901C74.8071 175.173 75.2621 174.536 75.8407 173.99C76.4241 173.439 77.0961 173.01 77.8567 172.702C78.6221 172.394 79.4387 172.24 80.3067 172.24C81.0161 172.24 81.6904 172.34 82.3297 172.541C82.9737 172.742 83.5244 173.005 83.9817 173.332L83.0017 175.257C82.6891 175.01 82.3087 174.816 81.8607 174.676C81.4127 174.536 80.9437 174.466 80.4537 174.466C79.8797 174.466 79.3477 174.562 78.8577 174.753C78.3724 174.944 77.9477 175.21 77.5837 175.551C77.2244 175.892 76.9444 176.291 76.7437 176.748C76.5431 177.205 76.4427 177.7 76.4427 178.232C76.4427 178.764 76.5431 179.259 76.7437 179.716C76.9444 180.173 77.2244 180.572 77.5837 180.913C77.9477 181.254 78.3724 181.52 78.8577 181.711C79.3477 181.902 79.8797 181.998 80.4537 181.998C80.9437 181.998 81.4127 181.928 81.8607 181.788C82.3087 181.648 82.6891 181.454 83.0017 181.207L83.9817 183.132C83.5431 183.449 83.0041 183.711 82.3647 183.916C81.7254 184.121 81.0441 184.224 80.3207 184.224ZM88.8068 184.224C88.0181 184.224 87.3065 184.063 86.6718 183.741C86.0371 183.414 85.5331 182.966 85.1598 182.397C84.7865 181.823 84.5998 181.163 84.5998 180.416C84.5998 179.669 84.7841 179.011 85.1528 178.442C85.5261 177.868 86.0301 177.42 86.6648 177.098C87.3041 176.771 88.0181 176.608 88.8068 176.608C89.6001 176.608 90.3141 176.771 90.9488 177.098C91.5835 177.42 92.0851 177.868 92.4538 178.442C92.8271 179.011 93.0138 179.669 93.0138 180.416C93.0138 181.163 92.8271 181.823 92.4538 182.397C92.0851 182.966 91.5835 183.414 90.9488 183.741C90.3141 184.063 89.6001 184.224 88.8068 184.224ZM88.8138 182.39C89.1778 182.39 89.5091 182.306 89.8078 182.138C90.1065 181.97 90.3421 181.739 90.5148 181.445C90.6875 181.146 90.7738 180.803 90.7738 180.416C90.7738 180.029 90.6875 179.688 90.5148 179.394C90.3421 179.095 90.1065 178.862 89.8078 178.694C89.5091 178.526 89.1778 178.442 88.8138 178.442C88.4451 178.442 88.1115 178.526 87.8128 178.694C87.5188 178.862 87.2855 179.095 87.1128 179.394C86.9401 179.688 86.8538 180.029 86.8538 180.416C86.8538 180.803 86.9401 181.146 87.1128 181.445C87.2855 181.739 87.5188 181.97 87.8128 182.138C88.1115 182.306 88.4451 182.39 88.8138 182.39ZM94.6091 184V171.96H96.7581V184H94.6091ZM102.575 184.224C101.786 184.224 101.075 184.063 100.44 183.741C99.8053 183.414 99.3013 182.966 98.9279 182.397C98.5546 181.823 98.3679 181.163 98.3679 180.416C98.3679 179.669 98.5523 179.011 98.9209 178.442C99.2943 177.868 99.7983 177.42 100.433 177.098C101.072 176.771 101.786 176.608 102.575 176.608C103.368 176.608 104.082 176.771 104.717 177.098C105.352 177.42 105.853 177.868 106.222 178.442C106.595 179.011 106.782 179.669 106.782 180.416C106.782 181.163 106.595 181.823 106.222 182.397C105.853 182.966 105.352 183.414 104.717 183.741C104.082 184.063 103.368 184.224 102.575 184.224ZM102.582 182.39C102.946 182.39 103.277 182.306 103.576 182.138C103.875 181.97 104.11 181.739 104.283 181.445C104.456 181.146 104.542 180.803 104.542 180.416C104.542 180.029 104.456 179.688 104.283 179.394C104.11 179.095 103.875 178.862 103.576 178.694C103.277 178.526 102.946 178.442 102.582 178.442C102.213 178.442 101.88 178.526 101.581 178.694C101.287 178.862 101.054 179.095 100.881 179.394C100.708 179.688 100.622 180.029 100.622 180.416C100.622 180.803 100.708 181.146 100.881 181.445C101.054 181.739 101.287 181.97 101.581 182.138C101.88 182.306 102.213 182.39 102.582 182.39ZM111.919 184.224C110.612 184.224 109.669 183.965 109.091 183.447C108.512 182.929 108.223 182.082 108.223 180.906V176.832H110.372V180.402C110.372 181.158 110.488 181.692 110.722 182.005C110.96 182.318 111.359 182.474 111.919 182.474C112.488 182.474 112.887 182.318 113.116 182.005C113.349 181.692 113.466 181.158 113.466 180.402V176.832H115.615V180.906C115.615 182.082 115.325 182.929 114.747 183.447C114.173 183.965 113.23 184.224 111.919 184.224ZM117.695 184V176.832H119.844V177.861C120.11 177.46 120.434 177.152 120.817 176.937C121.204 176.718 121.62 176.608 122.063 176.608C122.315 176.608 122.576 176.645 122.847 176.72C123.118 176.795 123.344 176.89 123.526 177.007L122.63 178.82C122.471 178.713 122.285 178.629 122.07 178.568C121.86 178.503 121.664 178.47 121.482 178.47C121.202 178.47 120.936 178.542 120.684 178.687C120.432 178.832 120.229 179.021 120.075 179.254C119.921 179.483 119.844 179.73 119.844 179.996V184H117.695Z" fill="#404040"/>
<path d="M81.2278 335V323.45H83.4958V333.012H87.6678V335H81.2278ZM88.9179 335V327.832H91.0669V335H88.9179ZM89.9959 326.341C89.7626 326.341 89.5479 326.285 89.3519 326.173C89.1606 326.056 89.0066 325.9 88.8899 325.704C88.7733 325.508 88.7149 325.293 88.7149 325.06C88.7149 324.827 88.7733 324.614 88.8899 324.423C89.0066 324.232 89.1606 324.08 89.3519 323.968C89.5479 323.851 89.7626 323.793 89.9959 323.793C90.2293 323.793 90.4416 323.851 90.6329 323.968C90.8243 324.08 90.9759 324.232 91.0879 324.423C91.2046 324.614 91.2629 324.827 91.2629 325.06C91.2629 325.293 91.2046 325.508 91.0879 325.704C90.9759 325.9 90.8243 326.056 90.6329 326.173C90.4416 326.285 90.2293 326.341 89.9959 326.341ZM96.7717 338.85C95.8057 338.85 94.9937 338.673 94.3357 338.318C93.6777 337.968 93.1994 337.45 92.9007 336.764L94.6507 335.91C94.8467 336.241 95.136 336.505 95.5187 336.701C95.9014 336.897 96.3167 336.995 96.7647 336.995C97.1707 336.995 97.5277 336.913 97.8357 336.75C98.1437 336.591 98.384 336.365 98.5567 336.071C98.7294 335.782 98.8157 335.446 98.8157 335.063V334.055C98.4984 334.424 98.1227 334.711 97.6887 334.916C97.2547 335.121 96.788 335.224 96.2887 335.224C95.64 335.224 95.0474 335.063 94.5107 334.741C93.9787 334.414 93.554 333.964 93.2367 333.39C92.9194 332.816 92.7607 332.158 92.7607 331.416C92.7607 330.688 92.9147 330.039 93.2227 329.47C93.5354 328.896 93.96 328.443 94.4967 328.112C95.038 327.776 95.654 327.608 96.3447 327.608C96.8487 327.608 97.3154 327.706 97.7447 327.902C98.174 328.093 98.531 328.362 98.8157 328.707V327.832H100.965V335.196C100.965 335.901 100.811 336.528 100.503 337.079C100.199 337.63 99.7374 338.061 99.1167 338.374C98.496 338.691 97.7144 338.85 96.7717 338.85ZM96.9327 333.397C97.3107 333.397 97.6444 333.313 97.9337 333.145C98.2277 332.972 98.4564 332.739 98.6197 332.445C98.783 332.146 98.8647 331.808 98.8647 331.43C98.8647 331.043 98.7807 330.7 98.6127 330.401C98.4494 330.102 98.223 329.867 97.9337 329.694C97.6444 329.521 97.3154 329.435 96.9467 329.435C96.578 329.435 96.249 329.521 95.9597 329.694C95.6704 329.867 95.4417 330.105 95.2737 330.408C95.1057 330.707 95.0217 331.047 95.0217 331.43C95.0217 331.808 95.1034 332.146 95.2667 332.445C95.43 332.739 95.6564 332.972 95.9457 333.145C96.235 333.313 96.564 333.397 96.9327 333.397ZM103.213 335V322.96H105.362V328.63C105.637 328.322 105.98 328.075 106.391 327.888C106.806 327.701 107.263 327.608 107.763 327.608C108.313 327.608 108.796 327.729 109.212 327.972C109.632 328.21 109.961 328.544 110.199 328.973C110.437 329.398 110.556 329.895 110.556 330.464V335H108.407V330.919C108.407 330.406 108.271 330.007 108.001 329.722C107.735 329.433 107.368 329.288 106.902 329.288C106.584 329.288 106.309 329.353 106.076 329.484C105.847 329.61 105.67 329.785 105.544 330.009C105.422 330.228 105.362 330.478 105.362 330.758V335H103.213ZM115.056 335.224C114.342 335.224 113.787 334.998 113.39 334.545C112.993 334.088 112.795 333.451 112.795 332.634V329.463H111.836V327.832H112.795V325.144H114.944V327.832H116.519V329.463H114.944V332.48C114.944 332.751 114.998 332.956 115.105 333.096C115.217 333.236 115.373 333.306 115.574 333.306C115.798 333.306 116.013 333.231 116.218 333.082L116.757 334.804C116.514 334.935 116.241 335.037 115.938 335.112C115.639 335.187 115.345 335.224 115.056 335.224Z" fill="#404040"/>
<path d="M81.7235 486V474.45H84.8945C85.7158 474.45 86.4788 474.597 87.1835 474.891C87.8882 475.185 88.5042 475.596 89.0315 476.123C89.5635 476.65 89.9765 477.264 90.2705 477.964C90.5692 478.664 90.7185 479.42 90.7185 480.232C90.7185 481.049 90.5715 481.807 90.2775 482.507C89.9835 483.202 89.5705 483.814 89.0385 484.341C88.5112 484.864 87.8928 485.272 87.1835 485.566C86.4788 485.855 85.7158 486 84.8945 486H81.7235ZM83.9915 483.97H84.6425C85.1652 483.97 85.6482 483.877 86.0915 483.69C86.5348 483.503 86.9198 483.242 87.2465 482.906C87.5732 482.57 87.8275 482.176 88.0095 481.723C88.1915 481.266 88.2825 480.766 88.2825 480.225C88.2825 479.688 88.1915 479.194 88.0095 478.741C87.8275 478.284 87.5732 477.887 87.2465 477.551C86.9198 477.21 86.5348 476.947 86.0915 476.76C85.6482 476.573 85.1652 476.48 84.6425 476.48H83.9915V483.97ZM95.4038 486.224C94.7458 486.224 94.1461 486.061 93.6048 485.734C93.0681 485.403 92.6411 484.95 92.3238 484.376C92.0111 483.797 91.8548 483.139 91.8548 482.402C91.8548 481.683 92.0065 481.039 92.3098 480.47C92.6131 479.896 93.0308 479.443 93.5628 479.112C94.0995 478.776 94.7131 478.608 95.4038 478.608C95.9125 478.608 96.3861 478.706 96.8248 478.902C97.2681 479.093 97.6298 479.362 97.9098 479.707V478.832H100.059V486H97.9098V485.055C97.5831 485.433 97.2075 485.722 96.7828 485.923C96.3581 486.124 95.8985 486.224 95.4038 486.224ZM96.0408 484.397C96.4141 484.397 96.7455 484.313 97.0348 484.145C97.3241 483.972 97.5505 483.737 97.7138 483.438C97.8771 483.139 97.9588 482.799 97.9588 482.416C97.9588 482.029 97.8748 481.688 97.7068 481.394C97.5435 481.095 97.3171 480.862 97.0278 480.694C96.7431 480.521 96.4141 480.435 96.0408 480.435C95.6721 480.435 95.3431 480.521 95.0538 480.694C94.7645 480.862 94.5358 481.095 94.3678 481.394C94.1998 481.693 94.1158 482.033 94.1158 482.416C94.1158 482.799 94.1975 483.139 94.3608 483.438C94.5288 483.737 94.7575 483.972 95.0468 484.145C95.3361 484.313 95.6675 484.397 96.0408 484.397ZM102.307 486V478.832H104.456V479.861C104.722 479.46 105.046 479.152 105.429 478.937C105.816 478.718 106.231 478.608 106.675 478.608C106.927 478.608 107.188 478.645 107.459 478.72C107.729 478.795 107.956 478.89 108.138 479.007L107.242 480.82C107.083 480.713 106.896 480.629 106.682 480.568C106.472 480.503 106.276 480.47 106.094 480.47C105.814 480.47 105.548 480.542 105.296 480.687C105.044 480.832 104.841 481.021 104.687 481.254C104.533 481.483 104.456 481.73 104.456 481.996V486H102.307ZM109.054 486V473.96H111.203V481.45L113.849 478.832H116.635L113.128 482.346L116.796 486H114.038L111.203 483.165V486H109.054Z" fill="#404040"/>
<path d="M198.13 84V72.45H200.398V82.012H204.57V84H198.13ZM205.82 84V76.832H207.969V84H205.82ZM206.898 75.341C206.664 75.341 206.45 75.285 206.254 75.173C206.062 75.0563 205.908 74.9 205.792 74.704C205.675 74.508 205.617 74.2933 205.617 74.06C205.617 73.8267 205.675 73.6143 205.792 73.423C205.908 73.2317 206.062 73.08 206.254 72.968C206.45 72.8513 206.664 72.793 206.898 72.793C207.131 72.793 207.343 72.8513 207.535 72.968C207.726 73.08 207.878 73.2317 207.99 73.423C208.106 73.6143 208.165 73.8267 208.165 74.06C208.165 74.2933 208.106 74.508 207.99 74.704C207.878 74.9 207.726 75.0563 207.535 75.173C207.343 75.285 207.131 75.341 206.898 75.341ZM213.674 87.85C212.708 87.85 211.896 87.6727 211.238 87.318C210.58 86.968 210.101 86.45 209.803 85.764L211.553 84.91C211.749 85.2413 212.038 85.505 212.421 85.701C212.803 85.897 213.219 85.995 213.667 85.995C214.073 85.995 214.43 85.9133 214.738 85.75C215.046 85.5913 215.286 85.365 215.459 85.071C215.631 84.7817 215.718 84.4457 215.718 84.063V83.055C215.4 83.4237 215.025 83.7107 214.591 83.916C214.157 84.1213 213.69 84.224 213.191 84.224C212.542 84.224 211.949 84.063 211.413 83.741C210.881 83.4143 210.456 82.964 210.139 82.39C209.821 81.816 209.663 81.158 209.663 80.416C209.663 79.688 209.817 79.0393 210.125 78.47C210.437 77.896 210.862 77.4433 211.399 77.112C211.94 76.776 212.556 76.608 213.247 76.608C213.751 76.608 214.217 76.706 214.647 76.902C215.076 77.0933 215.433 77.3617 215.718 77.707V76.832H217.867V84.196C217.867 84.9007 217.713 85.5283 217.405 86.079C217.101 86.6297 216.639 87.0613 216.019 87.374C215.398 87.6913 214.616 87.85 213.674 87.85ZM213.835 82.397C214.213 82.397 214.546 82.313 214.836 82.145C215.13 81.9723 215.358 81.739 215.522 81.445C215.685 81.1463 215.767 80.808 215.767 80.43C215.767 80.0427 215.683 79.6997 215.515 79.401C215.351 79.1023 215.125 78.8667 214.836 78.694C214.546 78.5213 214.217 78.435 213.849 78.435C213.48 78.435 213.151 78.5213 212.862 78.694C212.572 78.8667 212.344 79.1047 212.176 79.408C212.008 79.7067 211.924 80.0473 211.924 80.43C211.924 80.808 212.005 81.1463 212.169 81.445C212.332 81.739 212.558 81.9723 212.848 82.145C213.137 82.313 213.466 82.397 213.835 82.397ZM220.114 84V71.96H222.263V77.63C222.539 77.322 222.882 77.0747 223.292 76.888C223.708 76.7013 224.165 76.608 224.664 76.608C225.215 76.608 225.698 76.7293 226.113 76.972C226.533 77.21 226.862 77.5437 227.1 77.973C227.338 78.3977 227.457 78.8947 227.457 79.464V84H225.308V79.919C225.308 79.4057 225.173 79.0067 224.902 78.722C224.636 78.4327 224.27 78.288 223.803 78.288C223.486 78.288 223.211 78.3533 222.977 78.484C222.749 78.61 222.571 78.785 222.445 79.009C222.324 79.2283 222.263 79.478 222.263 79.758V84H220.114ZM231.958 84.224C231.244 84.224 230.688 83.9977 230.292 83.545C229.895 83.0877 229.697 82.4507 229.697 81.634V78.463H228.738V76.832H229.697V74.144H231.846V76.832H233.421V78.463H231.846V81.48C231.846 81.7507 231.899 81.956 232.007 82.096C232.119 82.236 232.275 82.306 232.476 82.306C232.7 82.306 232.914 82.2313 233.12 82.082L233.659 83.804C233.416 83.9347 233.143 84.0373 232.84 84.112C232.541 84.1867 232.247 84.224 231.958 84.224ZM235.236 84V76.832H237.385V77.63C237.66 77.322 238.003 77.0747 238.414 76.888C238.829 76.7013 239.287 76.608 239.786 76.608C240.337 76.608 240.82 76.7293 241.235 76.972C241.655 77.21 241.984 77.5437 242.222 77.973C242.46 78.3977 242.579 78.8947 242.579 79.464V84H240.43V79.919C240.43 79.4057 240.295 79.0067 240.024 78.722C239.758 78.4327 239.392 78.288 238.925 78.288C238.608 78.288 238.332 78.3533 238.099 78.484C237.87 78.61 237.693 78.785 237.567 79.009C237.446 79.2283 237.385 79.478 237.385 79.758V84H235.236ZM244.683 84V76.832H246.832V84H244.683ZM245.761 75.341C245.528 75.341 245.313 75.285 245.117 75.173C244.926 75.0563 244.772 74.9 244.655 74.704C244.539 74.508 244.48 74.2933 244.48 74.06C244.48 73.8267 244.539 73.6143 244.655 73.423C244.772 73.2317 244.926 73.08 245.117 72.968C245.313 72.8513 245.528 72.793 245.761 72.793C245.995 72.793 246.207 72.8513 246.398 72.968C246.59 73.08 246.741 73.2317 246.853 73.423C246.97 73.6143 247.028 73.8267 247.028 74.06C247.028 74.2933 246.97 74.508 246.853 74.704C246.741 74.9 246.59 75.0563 246.398 75.173C246.207 75.285 245.995 75.341 245.761 75.341ZM249.086 84V76.832H251.235V77.63C251.511 77.322 251.854 77.0747 252.264 76.888C252.68 76.7013 253.137 76.608 253.636 76.608C254.187 76.608 254.67 76.7293 255.085 76.972C255.505 77.21 255.834 77.5437 256.072 77.973C256.31 78.3977 256.429 78.8947 256.429 79.464V84H254.28V79.919C254.28 79.4057 254.145 79.0067 253.874 78.722C253.608 78.4327 253.242 78.288 252.775 78.288C252.458 78.288 252.183 78.3533 251.949 78.484C251.721 78.61 251.543 78.785 251.417 79.009C251.296 79.2283 251.235 79.478 251.235 79.758V84H249.086ZM261.992 87.85C261.026 87.85 260.214 87.6727 259.556 87.318C258.898 86.968 258.419 86.45 258.121 85.764L259.871 84.91C260.067 85.2413 260.356 85.505 260.739 85.701C261.121 85.897 261.537 85.995 261.985 85.995C262.391 85.995 262.748 85.9133 263.056 85.75C263.364 85.5913 263.604 85.365 263.777 85.071C263.949 84.7817 264.036 84.4457 264.036 84.063V83.055C263.718 83.4237 263.343 83.7107 262.909 83.916C262.475 84.1213 262.008 84.224 261.509 84.224C260.86 84.224 260.267 84.063 259.731 83.741C259.199 83.4143 258.774 82.964 258.457 82.39C258.139 81.816 257.981 81.158 257.981 80.416C257.981 79.688 258.135 79.0393 258.443 78.47C258.755 77.896 259.18 77.4433 259.717 77.112C260.258 76.776 260.874 76.608 261.565 76.608C262.069 76.608 262.535 76.706 262.965 76.902C263.394 77.0933 263.751 77.3617 264.036 77.707V76.832H266.185V84.196C266.185 84.9007 266.031 85.5283 265.723 86.079C265.419 86.6297 264.957 87.0613 264.337 87.374C263.716 87.6913 262.934 87.85 261.992 87.85ZM262.153 82.397C262.531 82.397 262.864 82.313 263.154 82.145C263.448 81.9723 263.676 81.739 263.84 81.445C264.003 81.1463 264.085 80.808 264.085 80.43C264.085 80.0427 264.001 79.6997 263.833 79.401C263.669 79.1023 263.443 78.8667 263.154 78.694C262.864 78.5213 262.535 78.435 262.167 78.435C261.798 78.435 261.469 78.5213 261.18 78.694C260.89 78.8667 260.662 79.1047 260.494 79.408C260.326 79.7067 260.242 80.0473 260.242 80.43C260.242 80.808 260.323 81.1463 260.487 81.445C260.65 81.739 260.876 81.9723 261.166 82.145C261.455 82.313 261.784 82.397 262.153 82.397Z" fill="#404040"/>
<rect x="147" y="110" width="170" height="132" rx="20" fill="#FBF8FB"/>
<rect x="167" y="146" width="130" height="60" rx="30" fill="#FFD542"/>
<path d="M203.641 172.312H198.006L200.086 165.975C200.282 165.232 199.72 164.5 198.954 164.5H191.922C191.336 164.5 190.838 164.935 190.76 165.516L189.198 177.234C189.105 177.937 189.652 178.562 190.36 178.562H196.156L193.905 188.06C193.729 188.802 194.295 189.5 195.043 189.5C195.453 189.5 195.843 189.285 196.058 188.914L204.652 174.07C205.106 173.294 204.544 172.312 203.641 172.312Z" fill="#FFFEDE"/>
<path d="M223.7 182V167.15H227.957C229.385 167.15 230.504 167.462 231.314 168.086C232.124 168.71 232.529 169.643 232.529 170.885C232.529 172.427 231.893 173.516 230.621 174.152C231.659 174.314 232.454 174.713 233.006 175.349C233.564 175.979 233.843 176.807 233.843 177.833C233.843 178.697 233.648 179.441 233.258 180.065C232.868 180.689 232.313 181.169 231.593 181.505C230.873 181.835 230.021 182 229.037 182H223.7ZM226.607 173.162H227.282C228.068 173.162 228.671 173 229.091 172.676C229.511 172.346 229.721 171.875 229.721 171.263C229.721 170.645 229.517 170.183 229.109 169.877C228.701 169.565 228.092 169.409 227.282 169.409H226.607V173.162ZM226.607 179.732H228.047C228.959 179.732 229.643 179.564 230.099 179.228C230.561 178.892 230.792 178.397 230.792 177.743C230.792 177.077 230.555 176.567 230.081 176.213C229.613 175.853 228.935 175.673 228.047 175.673H226.607V179.732ZM240.225 182.288C239.211 182.288 238.296 182.081 237.48 181.667C236.664 181.247 236.016 180.671 235.536 179.939C235.056 179.201 234.816 178.352 234.816 177.392C234.816 176.432 235.053 175.586 235.527 174.854C236.007 174.116 236.655 173.54 237.471 173.126C238.293 172.706 239.211 172.496 240.225 172.496C241.245 172.496 242.163 172.706 242.979 173.126C243.795 173.54 244.44 174.116 244.914 174.854C245.394 175.586 245.634 176.432 245.634 177.392C245.634 178.352 245.394 179.201 244.914 179.939C244.44 180.671 243.795 181.247 242.979 181.667C242.163 182.081 241.245 182.288 240.225 182.288ZM240.234 179.93C240.702 179.93 241.128 179.822 241.512 179.606C241.896 179.39 242.199 179.093 242.421 178.715C242.643 178.331 242.754 177.89 242.754 177.392C242.754 176.894 242.643 176.456 242.421 176.078C242.199 175.694 241.896 175.394 241.512 175.178C241.128 174.962 240.702 174.854 240.234 174.854C239.76 174.854 239.331 174.962 238.947 175.178C238.569 175.394 238.269 175.694 238.047 176.078C237.825 176.456 237.714 176.894 237.714 177.392C237.714 177.89 237.825 178.331 238.047 178.715C238.269 179.093 238.569 179.39 238.947 179.606C239.331 179.822 239.76 179.93 240.234 179.93ZM252.311 182.288C251.297 182.288 250.382 182.081 249.566 181.667C248.75 181.247 248.102 180.671 247.622 179.939C247.142 179.201 246.902 178.352 246.902 177.392C246.902 176.432 247.139 175.586 247.613 174.854C248.093 174.116 248.741 173.54 249.557 173.126C250.379 172.706 251.297 172.496 252.311 172.496C253.331 172.496 254.249 172.706 255.065 173.126C255.881 173.54 256.526 174.116 257 174.854C257.48 175.586 257.72 176.432 257.72 177.392C257.72 178.352 257.48 179.201 257 179.939C256.526 180.671 255.881 181.247 255.065 181.667C254.249 182.081 253.331 182.288 252.311 182.288ZM252.32 179.93C252.788 179.93 253.214 179.822 253.598 179.606C253.982 179.39 254.285 179.093 254.507 178.715C254.729 178.331 254.84 177.89 254.84 177.392C254.84 176.894 254.729 176.456 254.507 176.078C254.285 175.694 253.982 175.394 253.598 175.178C253.214 174.962 252.788 174.854 252.32 174.854C251.846 174.854 251.417 174.962 251.033 175.178C250.655 175.394 250.355 175.694 250.133 176.078C249.911 176.456 249.8 176.894 249.8 177.392C249.8 177.89 249.911 178.331 250.133 178.715C250.355 179.093 250.655 179.39 251.033 179.606C251.417 179.822 251.846 179.93 252.32 179.93ZM262.346 182.288C261.566 182.288 260.867 182.165 260.249 181.919C259.637 181.673 259.127 181.313 258.719 180.839L259.88 178.985C260.264 179.393 260.666 179.705 261.086 179.921C261.506 180.137 261.926 180.245 262.346 180.245C262.58 180.245 262.781 180.206 262.949 180.128C263.123 180.05 263.258 179.939 263.354 179.795C263.456 179.645 263.507 179.465 263.507 179.255C263.507 179.015 263.438 178.826 263.3 178.688C263.168 178.55 262.964 178.424 262.688 178.31C262.412 178.19 262.055 178.04 261.617 177.86C261.245 177.704 260.888 177.527 260.546 177.329C260.204 177.131 259.925 176.879 259.709 176.573C259.499 176.267 259.394 175.88 259.394 175.412C259.394 174.842 259.553 174.341 259.871 173.909C260.189 173.471 260.627 173.129 261.185 172.883C261.749 172.637 262.397 172.514 263.129 172.514C263.585 172.514 264.062 172.583 264.56 172.721C265.064 172.859 265.601 173.069 266.171 173.351L265.226 175.124C264.452 174.626 263.759 174.377 263.147 174.377C262.805 174.377 262.532 174.452 262.328 174.602C262.124 174.752 262.022 174.941 262.022 175.169C262.022 175.385 262.127 175.574 262.337 175.736C262.553 175.892 262.814 176.033 263.12 176.159C263.432 176.279 263.729 176.39 264.011 176.492C264.473 176.66 264.881 176.846 265.235 177.05C265.595 177.254 265.877 177.521 266.081 177.851C266.285 178.175 266.387 178.61 266.387 179.156C266.387 179.822 266.225 180.389 265.901 180.857C265.583 181.319 265.121 181.673 264.515 181.919C263.915 182.165 263.192 182.288 262.346 182.288ZM271.606 182.288C270.688 182.288 269.974 181.997 269.464 181.415C268.954 180.827 268.699 180.008 268.699 178.958V174.881H267.466V172.784H268.699V169.328H271.462V172.784H273.487V174.881H271.462V178.76C271.462 179.108 271.531 179.372 271.669 179.552C271.813 179.732 272.014 179.822 272.272 179.822C272.56 179.822 272.836 179.726 273.1 179.534L273.793 181.748C273.481 181.916 273.13 182.048 272.74 182.144C272.356 182.24 271.978 182.288 271.606 182.288Z" fill="#505050"/>
<rect x="147" y="272" width="170" height="132" rx="20" fill="#FBF8FB"/>
<rect x="167" y="308" width="130" height="60" rx="30" fill="white"/>
<path d="M203.641 334.312H198.006L200.086 327.975C200.282 327.232 199.72 326.5 198.954 326.5H191.922C191.336 326.5 190.838 326.935 190.76 327.516L189.198 339.234C189.105 339.937 189.652 340.562 190.36 340.562H196.156L193.905 350.06C193.729 350.802 194.295 351.5 195.043 351.5C195.453 351.5 195.843 351.285 196.058 350.914L204.652 336.07C205.106 335.294 204.544 334.312 203.641 334.312Z" fill="#FFD542"/>
<path d="M223.7 344V329.15H227.957C229.385 329.15 230.504 329.462 231.314 330.086C232.124 330.71 232.529 331.643 232.529 332.885C232.529 334.427 231.893 335.516 230.621 336.152C231.659 336.314 232.454 336.713 233.006 337.349C233.564 337.979 233.843 338.807 233.843 339.833C233.843 340.697 233.648 341.441 233.258 342.065C232.868 342.689 232.313 343.169 231.593 343.505C230.873 343.835 230.021 344 229.037 344H223.7ZM226.607 335.162H227.282C228.068 335.162 228.671 335 229.091 334.676C229.511 334.346 229.721 333.875 229.721 333.263C229.721 332.645 229.517 332.183 229.109 331.877C228.701 331.565 228.092 331.409 227.282 331.409H226.607V335.162ZM226.607 341.732H228.047C228.959 341.732 229.643 341.564 230.099 341.228C230.561 340.892 230.792 340.397 230.792 339.743C230.792 339.077 230.555 338.567 230.081 338.213C229.613 337.853 228.935 337.673 228.047 337.673H226.607V341.732ZM240.225 344.288C239.211 344.288 238.296 344.081 237.48 343.667C236.664 343.247 236.016 342.671 235.536 341.939C235.056 341.201 234.816 340.352 234.816 339.392C234.816 338.432 235.053 337.586 235.527 336.854C236.007 336.116 236.655 335.54 237.471 335.126C238.293 334.706 239.211 334.496 240.225 334.496C241.245 334.496 242.163 334.706 242.979 335.126C243.795 335.54 244.44 336.116 244.914 336.854C245.394 337.586 245.634 338.432 245.634 339.392C245.634 340.352 245.394 341.201 244.914 341.939C244.44 342.671 243.795 343.247 242.979 343.667C242.163 344.081 241.245 344.288 240.225 344.288ZM240.234 341.93C240.702 341.93 241.128 341.822 241.512 341.606C241.896 341.39 242.199 341.093 242.421 340.715C242.643 340.331 242.754 339.89 242.754 339.392C242.754 338.894 242.643 338.456 242.421 338.078C242.199 337.694 241.896 337.394 241.512 337.178C241.128 336.962 240.702 336.854 240.234 336.854C239.76 336.854 239.331 336.962 238.947 337.178C238.569 337.394 238.269 337.694 238.047 338.078C237.825 338.456 237.714 338.894 237.714 339.392C237.714 339.89 237.825 340.331 238.047 340.715C238.269 341.093 238.569 341.39 238.947 341.606C239.331 341.822 239.76 341.93 240.234 341.93ZM252.311 344.288C251.297 344.288 250.382 344.081 249.566 343.667C248.75 343.247 248.102 342.671 247.622 341.939C247.142 341.201 246.902 340.352 246.902 339.392C246.902 338.432 247.139 337.586 247.613 336.854C248.093 336.116 248.741 335.54 249.557 335.126C250.379 334.706 251.297 334.496 252.311 334.496C253.331 334.496 254.249 334.706 255.065 335.126C255.881 335.54 256.526 336.116 257 336.854C257.48 337.586 257.72 338.432 257.72 339.392C257.72 340.352 257.48 341.201 257 341.939C256.526 342.671 255.881 343.247 255.065 343.667C254.249 344.081 253.331 344.288 252.311 344.288ZM252.32 341.93C252.788 341.93 253.214 341.822 253.598 341.606C253.982 341.39 254.285 341.093 254.507 340.715C254.729 340.331 254.84 339.89 254.84 339.392C254.84 338.894 254.729 338.456 254.507 338.078C254.285 337.694 253.982 337.394 253.598 337.178C253.214 336.962 252.788 336.854 252.32 336.854C251.846 336.854 251.417 336.962 251.033 337.178C250.655 337.394 250.355 337.694 250.133 338.078C249.911 338.456 249.8 338.894 249.8 339.392C249.8 339.89 249.911 340.331 250.133 340.715C250.355 341.093 250.655 341.39 251.033 341.606C251.417 341.822 251.846 341.93 252.32 341.93ZM262.346 344.288C261.566 344.288 260.867 344.165 260.249 343.919C259.637 343.673 259.127 343.313 258.719 342.839L259.88 340.985C260.264 341.393 260.666 341.705 261.086 341.921C261.506 342.137 261.926 342.245 262.346 342.245C262.58 342.245 262.781 342.206 262.949 342.128C263.123 342.05 263.258 341.939 263.354 341.795C263.456 341.645 263.507 341.465 263.507 341.255C263.507 341.015 263.438 340.826 263.3 340.688C263.168 340.55 262.964 340.424 262.688 340.31C262.412 340.19 262.055 340.04 261.617 339.86C261.245 339.704 260.888 339.527 260.546 339.329C260.204 339.131 259.925 338.879 259.709 338.573C259.499 338.267 259.394 337.88 259.394 337.412C259.394 336.842 259.553 336.341 259.871 335.909C260.189 335.471 260.627 335.129 261.185 334.883C261.749 334.637 262.397 334.514 263.129 334.514C263.585 334.514 264.062 334.583 264.56 334.721C265.064 334.859 265.601 335.069 266.171 335.351L265.226 337.124C264.452 336.626 263.759 336.377 263.147 336.377C262.805 336.377 262.532 336.452 262.328 336.602C262.124 336.752 262.022 336.941 262.022 337.169C262.022 337.385 262.127 337.574 262.337 337.736C262.553 337.892 262.814 338.033 263.12 338.159C263.432 338.279 263.729 338.39 264.011 338.492C264.473 338.66 264.881 338.846 265.235 339.05C265.595 339.254 265.877 339.521 266.081 339.851C266.285 340.175 266.387 340.61 266.387 341.156C266.387 341.822 266.225 342.389 265.901 342.857C265.583 343.319 265.121 343.673 264.515 343.919C263.915 344.165 263.192 344.288 262.346 344.288ZM271.606 344.288C270.688 344.288 269.974 343.997 269.464 343.415C268.954 342.827 268.699 342.008 268.699 340.958V336.881H267.466V334.784H268.699V331.328H271.462V334.784H273.487V336.881H271.462V340.76C271.462 341.108 271.531 341.372 271.669 341.552C271.813 341.732 272.014 341.822 272.272 341.822C272.56 341.822 272.836 341.726 273.1 341.534L273.793 343.748C273.481 343.916 273.13 344.048 272.74 344.144C272.356 344.24 271.978 344.288 271.606 344.288Z" fill="#404040"/>
<rect x="147" y="434" width="170" height="132" rx="20" fill="#FBF8FB"/>
<rect x="167" y="470" width="130" height="60" rx="30" fill="black"/>
<path d="M203.641 496.312H198.006L200.086 489.975C200.282 489.232 199.72 488.5 198.954 488.5H191.922C191.336 488.5 190.838 488.935 190.76 489.516L189.198 501.234C189.105 501.937 189.652 502.562 190.36 502.562H196.156L193.905 512.06C193.729 512.802 194.295 513.5 195.043 513.5C195.453 513.5 195.843 513.285 196.058 512.914L204.652 498.07C205.106 497.294 204.544 496.312 203.641 496.312Z" fill="#FFD542"/>
<path d="M223.7 506V491.15H227.957C229.385 491.15 230.504 491.462 231.314 492.086C232.124 492.71 232.529 493.643 232.529 494.885C232.529 496.427 231.893 497.516 230.621 498.152C231.659 498.314 232.454 498.713 233.006 499.349C233.564 499.979 233.843 500.807 233.843 501.833C233.843 502.697 233.648 503.441 233.258 504.065C232.868 504.689 232.313 505.169 231.593 505.505C230.873 505.835 230.021 506 229.037 506H223.7ZM226.607 497.162H227.282C228.068 497.162 228.671 497 229.091 496.676C229.511 496.346 229.721 495.875 229.721 495.263C229.721 494.645 229.517 494.183 229.109 493.877C228.701 493.565 228.092 493.409 227.282 493.409H226.607V497.162ZM226.607 503.732H228.047C228.959 503.732 229.643 503.564 230.099 503.228C230.561 502.892 230.792 502.397 230.792 501.743C230.792 501.077 230.555 500.567 230.081 500.213C229.613 499.853 228.935 499.673 228.047 499.673H226.607V503.732ZM240.225 506.288C239.211 506.288 238.296 506.081 237.48 505.667C236.664 505.247 236.016 504.671 235.536 503.939C235.056 503.201 234.816 502.352 234.816 501.392C234.816 500.432 235.053 499.586 235.527 498.854C236.007 498.116 236.655 497.54 237.471 497.126C238.293 496.706 239.211 496.496 240.225 496.496C241.245 496.496 242.163 496.706 242.979 497.126C243.795 497.54 244.44 498.116 244.914 498.854C245.394 499.586 245.634 500.432 245.634 501.392C245.634 502.352 245.394 503.201 244.914 503.939C244.44 504.671 243.795 505.247 242.979 505.667C242.163 506.081 241.245 506.288 240.225 506.288ZM240.234 503.93C240.702 503.93 241.128 503.822 241.512 503.606C241.896 503.39 242.199 503.093 242.421 502.715C242.643 502.331 242.754 501.89 242.754 501.392C242.754 500.894 242.643 500.456 242.421 500.078C242.199 499.694 241.896 499.394 241.512 499.178C241.128 498.962 240.702 498.854 240.234 498.854C239.76 498.854 239.331 498.962 238.947 499.178C238.569 499.394 238.269 499.694 238.047 500.078C237.825 500.456 237.714 500.894 237.714 501.392C237.714 501.89 237.825 502.331 238.047 502.715C238.269 503.093 238.569 503.39 238.947 503.606C239.331 503.822 239.76 503.93 240.234 503.93ZM252.311 506.288C251.297 506.288 250.382 506.081 249.566 505.667C248.75 505.247 248.102 504.671 247.622 503.939C247.142 503.201 246.902 502.352 246.902 501.392C246.902 500.432 247.139 499.586 247.613 498.854C248.093 498.116 248.741 497.54 249.557 497.126C250.379 496.706 251.297 496.496 252.311 496.496C253.331 496.496 254.249 496.706 255.065 497.126C255.881 497.54 256.526 498.116 257 498.854C257.48 499.586 257.72 500.432 257.72 501.392C257.72 502.352 257.48 503.201 257 503.939C256.526 504.671 255.881 505.247 255.065 505.667C254.249 506.081 253.331 506.288 252.311 506.288ZM252.32 503.93C252.788 503.93 253.214 503.822 253.598 503.606C253.982 503.39 254.285 503.093 254.507 502.715C254.729 502.331 254.84 501.89 254.84 501.392C254.84 500.894 254.729 500.456 254.507 500.078C254.285 499.694 253.982 499.394 253.598 499.178C253.214 498.962 252.788 498.854 252.32 498.854C251.846 498.854 251.417 498.962 251.033 499.178C250.655 499.394 250.355 499.694 250.133 500.078C249.911 500.456 249.8 500.894 249.8 501.392C249.8 501.89 249.911 502.331 250.133 502.715C250.355 503.093 250.655 503.39 251.033 503.606C251.417 503.822 251.846 503.93 252.32 503.93ZM262.346 506.288C261.566 506.288 260.867 506.165 260.249 505.919C259.637 505.673 259.127 505.313 258.719 504.839L259.88 502.985C260.264 503.393 260.666 503.705 261.086 503.921C261.506 504.137 261.926 504.245 262.346 504.245C262.58 504.245 262.781 504.206 262.949 504.128C263.123 504.05 263.258 503.939 263.354 503.795C263.456 503.645 263.507 503.465 263.507 503.255C263.507 503.015 263.438 502.826 263.3 502.688C263.168 502.55 262.964 502.424 262.688 502.31C262.412 502.19 262.055 502.04 261.617 501.86C261.245 501.704 260.888 501.527 260.546 501.329C260.204 501.131 259.925 500.879 259.709 500.573C259.499 500.267 259.394 499.88 259.394 499.412C259.394 498.842 259.553 498.341 259.871 497.909C260.189 497.471 260.627 497.129 261.185 496.883C261.749 496.637 262.397 496.514 263.129 496.514C263.585 496.514 264.062 496.583 264.56 496.721C265.064 496.859 265.601 497.069 266.171 497.351L265.226 499.124C264.452 498.626 263.759 498.377 263.147 498.377C262.805 498.377 262.532 498.452 262.328 498.602C262.124 498.752 262.022 498.941 262.022 499.169C262.022 499.385 262.127 499.574 262.337 499.736C262.553 499.892 262.814 500.033 263.12 500.159C263.432 500.279 263.729 500.39 264.011 500.492C264.473 500.66 264.881 500.846 265.235 501.05C265.595 501.254 265.877 501.521 266.081 501.851C266.285 502.175 266.387 502.61 266.387 503.156C266.387 503.822 266.225 504.389 265.901 504.857C265.583 505.319 265.121 505.673 264.515 505.919C263.915 506.165 263.192 506.288 262.346 506.288ZM271.606 506.288C270.688 506.288 269.974 505.997 269.464 505.415C268.954 504.827 268.699 504.008 268.699 502.958V498.881H267.466V496.784H268.699V493.328H271.462V496.784H273.487V498.881H271.462V502.76C271.462 503.108 271.531 503.372 271.669 503.552C271.813 503.732 272.014 503.822 272.272 503.822C272.56 503.822 272.836 503.726 273.1 503.534L273.793 505.748C273.481 505.916 273.13 506.048 272.74 506.144C272.356 506.24 271.978 506.288 271.606 506.288Z" fill="#D1D1D1"/>
<path d="M412.034 84V72.45H414.302V77.217H418.621V72.45H420.882V84H418.621V79.205H414.302V84H412.034ZM426.894 84.224C426.12 84.224 425.424 84.0583 424.808 83.727C424.197 83.391 423.712 82.936 423.352 82.362C422.993 81.788 422.813 81.1393 422.813 80.416C422.813 79.884 422.914 79.387 423.114 78.925C423.32 78.463 423.604 78.0593 423.968 77.714C424.332 77.364 424.755 77.0933 425.235 76.902C425.716 76.706 426.236 76.608 426.796 76.608C427.543 76.608 428.196 76.7643 428.756 77.077C429.321 77.385 429.76 77.8143 430.072 78.365C430.39 78.9157 430.548 79.5573 430.548 80.29C430.548 80.3507 430.546 80.4043 430.541 80.451C430.541 80.493 430.534 80.5747 430.52 80.696H425.025C425.025 81.06 425.107 81.3773 425.27 81.648C425.438 81.9187 425.672 82.131 425.97 82.285C426.269 82.4343 426.617 82.509 427.013 82.509C427.387 82.509 427.716 82.4367 428 82.292C428.29 82.1473 428.567 81.9163 428.833 81.599L430.38 82.376C430.044 82.9547 429.568 83.4073 428.952 83.734C428.336 84.0607 427.65 84.224 426.894 84.224ZM425.102 79.506H428.434C428.388 79.2307 428.287 78.9927 428.133 78.792C427.984 78.5913 427.793 78.4373 427.559 78.33C427.326 78.2227 427.062 78.169 426.768 78.169C426.456 78.169 426.18 78.2227 425.942 78.33C425.704 78.4373 425.513 78.5913 425.368 78.792C425.224 78.9927 425.135 79.2307 425.102 79.506ZM435.128 84.224C434.47 84.224 433.87 84.0607 433.329 83.734C432.792 83.4027 432.365 82.95 432.048 82.376C431.735 81.7973 431.579 81.1393 431.579 80.402C431.579 79.6833 431.731 79.0393 432.034 78.47C432.337 77.896 432.755 77.4433 433.287 77.112C433.824 76.776 434.437 76.608 435.128 76.608C435.637 76.608 436.11 76.706 436.549 76.902C436.992 77.0933 437.354 77.3617 437.634 77.707V76.832H439.783V84H437.634V83.055C437.307 83.433 436.932 83.7223 436.507 83.923C436.082 84.1237 435.623 84.224 435.128 84.224ZM435.765 82.397C436.138 82.397 436.47 82.313 436.759 82.145C437.048 81.9723 437.275 81.7367 437.438 81.438C437.601 81.1393 437.683 80.7987 437.683 80.416C437.683 80.0287 437.599 79.688 437.431 79.394C437.268 79.0953 437.041 78.862 436.752 78.694C436.467 78.5213 436.138 78.435 435.765 78.435C435.396 78.435 435.067 78.5213 434.778 78.694C434.489 78.862 434.26 79.0953 434.092 79.394C433.924 79.6927 433.84 80.0333 433.84 80.416C433.84 80.7987 433.922 81.1393 434.085 81.438C434.253 81.7367 434.482 81.9723 434.771 82.145C435.06 82.313 435.392 82.397 435.765 82.397ZM442.031 84V76.832H444.18V77.861C444.446 77.4597 444.77 77.1517 445.153 76.937C445.54 76.7177 445.956 76.608 446.399 76.608C446.651 76.608 446.912 76.6453 447.183 76.72C447.454 76.7947 447.68 76.8903 447.862 77.007L446.966 78.82C446.807 78.7127 446.621 78.6287 446.406 78.568C446.196 78.5027 446 78.47 445.818 78.47C445.538 78.47 445.272 78.5423 445.02 78.687C444.768 78.8317 444.565 79.0207 444.411 79.254C444.257 79.4827 444.18 79.73 444.18 79.996V84H442.031ZM451.249 84.224C450.535 84.224 449.98 83.9977 449.583 83.545C449.187 83.0877 448.988 82.4507 448.988 81.634V78.463H448.029V76.832H448.988V74.144H451.137V76.832H452.712V78.463H451.137V81.48C451.137 81.7507 451.191 81.956 451.298 82.096C451.41 82.236 451.567 82.306 451.767 82.306C451.991 82.306 452.206 82.2313 452.411 82.082L452.95 83.804C452.708 83.9347 452.435 84.0373 452.131 84.112C451.833 84.1867 451.539 84.224 451.249 84.224Z" fill="#404040"/>
<rect x="347" y="110" width="170" height="132" rx="20" fill="#FBF8FB"/>
<rect x="367" y="146" width="130" height="60" rx="30" fill="#FF5E69"/>
<path d="M407.073 167.558C404.398 165.278 400.418 165.688 397.962 168.222L397 169.213L396.038 168.222C393.587 165.688 389.603 165.278 386.927 167.558C383.861 170.175 383.7 174.873 386.444 177.709L395.892 187.465C396.502 188.095 397.494 188.095 398.104 187.465L407.552 177.709C410.301 174.873 410.14 170.175 407.073 167.558V167.558Z" fill="#FFF2F3"/>
<path d="M423.7 182V167.15H427.957C429.385 167.15 430.504 167.462 431.314 168.086C432.124 168.71 432.529 169.643 432.529 170.885C432.529 172.427 431.893 173.516 430.621 174.152C431.659 174.314 432.454 174.713 433.006 175.349C433.564 175.979 433.843 176.807 433.843 177.833C433.843 178.697 433.648 179.441 433.258 180.065C432.868 180.689 432.313 181.169 431.593 181.505C430.873 181.835 430.021 182 429.037 182H423.7ZM426.607 173.162H427.282C428.068 173.162 428.671 173 429.091 172.676C429.511 172.346 429.721 171.875 429.721 171.263C429.721 170.645 429.517 170.183 429.109 169.877C428.701 169.565 428.092 169.409 427.282 169.409H426.607V173.162ZM426.607 179.732H428.047C428.959 179.732 429.643 179.564 430.099 179.228C430.561 178.892 430.792 178.397 430.792 177.743C430.792 177.077 430.555 176.567 430.081 176.213C429.613 175.853 428.935 175.673 428.047 175.673H426.607V179.732ZM440.225 182.288C439.211 182.288 438.296 182.081 437.48 181.667C436.664 181.247 436.016 180.671 435.536 179.939C435.056 179.201 434.816 178.352 434.816 177.392C434.816 176.432 435.053 175.586 435.527 174.854C436.007 174.116 436.655 173.54 437.471 173.126C438.293 172.706 439.211 172.496 440.225 172.496C441.245 172.496 442.163 172.706 442.979 173.126C443.795 173.54 444.44 174.116 444.914 174.854C445.394 175.586 445.634 176.432 445.634 177.392C445.634 178.352 445.394 179.201 444.914 179.939C444.44 180.671 443.795 181.247 442.979 181.667C442.163 182.081 441.245 182.288 440.225 182.288ZM440.234 179.93C440.702 179.93 441.128 179.822 441.512 179.606C441.896 179.39 442.199 179.093 442.421 178.715C442.643 178.331 442.754 177.89 442.754 177.392C442.754 176.894 442.643 176.456 442.421 176.078C442.199 175.694 441.896 175.394 441.512 175.178C441.128 174.962 440.702 174.854 440.234 174.854C439.76 174.854 439.331 174.962 438.947 175.178C438.569 175.394 438.269 175.694 438.047 176.078C437.825 176.456 437.714 176.894 437.714 177.392C437.714 177.89 437.825 178.331 438.047 178.715C438.269 179.093 438.569 179.39 438.947 179.606C439.331 179.822 439.76 179.93 440.234 179.93ZM452.311 182.288C451.297 182.288 450.382 182.081 449.566 181.667C448.75 181.247 448.102 180.671 447.622 179.939C447.142 179.201 446.902 178.352 446.902 177.392C446.902 176.432 447.139 175.586 447.613 174.854C448.093 174.116 448.741 173.54 449.557 173.126C450.379 172.706 451.297 172.496 452.311 172.496C453.331 172.496 454.249 172.706 455.065 173.126C455.881 173.54 456.526 174.116 457 174.854C457.48 175.586 457.72 176.432 457.72 177.392C457.72 178.352 457.48 179.201 457 179.939C456.526 180.671 455.881 181.247 455.065 181.667C454.249 182.081 453.331 182.288 452.311 182.288ZM452.32 179.93C452.788 179.93 453.214 179.822 453.598 179.606C453.982 179.39 454.285 179.093 454.507 178.715C454.729 178.331 454.84 177.89 454.84 177.392C454.84 176.894 454.729 176.456 454.507 176.078C454.285 175.694 453.982 175.394 453.598 175.178C453.214 174.962 452.788 174.854 452.32 174.854C451.846 174.854 451.417 174.962 451.033 175.178C450.655 175.394 450.355 175.694 450.133 176.078C449.911 176.456 449.8 176.894 449.8 177.392C449.8 177.89 449.911 178.331 450.133 178.715C450.355 179.093 450.655 179.39 451.033 179.606C451.417 179.822 451.846 179.93 452.32 179.93ZM462.346 182.288C461.566 182.288 460.867 182.165 460.249 181.919C459.637 181.673 459.127 181.313 458.719 180.839L459.88 178.985C460.264 179.393 460.666 179.705 461.086 179.921C461.506 180.137 461.926 180.245 462.346 180.245C462.58 180.245 462.781 180.206 462.949 180.128C463.123 180.05 463.258 179.939 463.354 179.795C463.456 179.645 463.507 179.465 463.507 179.255C463.507 179.015 463.438 178.826 463.3 178.688C463.168 178.55 462.964 178.424 462.688 178.31C462.412 178.19 462.055 178.04 461.617 177.86C461.245 177.704 460.888 177.527 460.546 177.329C460.204 177.131 459.925 176.879 459.709 176.573C459.499 176.267 459.394 175.88 459.394 175.412C459.394 174.842 459.553 174.341 459.871 173.909C460.189 173.471 460.627 173.129 461.185 172.883C461.749 172.637 462.397 172.514 463.129 172.514C463.585 172.514 464.062 172.583 464.56 172.721C465.064 172.859 465.601 173.069 466.171 173.351L465.226 175.124C464.452 174.626 463.759 174.377 463.147 174.377C462.805 174.377 462.532 174.452 462.328 174.602C462.124 174.752 462.022 174.941 462.022 175.169C462.022 175.385 462.127 175.574 462.337 175.736C462.553 175.892 462.814 176.033 463.12 176.159C463.432 176.279 463.729 176.39 464.011 176.492C464.473 176.66 464.881 176.846 465.235 177.05C465.595 177.254 465.877 177.521 466.081 177.851C466.285 178.175 466.387 178.61 466.387 179.156C466.387 179.822 466.225 180.389 465.901 180.857C465.583 181.319 465.121 181.673 464.515 181.919C463.915 182.165 463.192 182.288 462.346 182.288ZM471.606 182.288C470.688 182.288 469.974 181.997 469.464 181.415C468.954 180.827 468.699 180.008 468.699 178.958V174.881H467.466V172.784H468.699V169.328H471.462V172.784H473.487V174.881H471.462V178.76C471.462 179.108 471.531 179.372 471.669 179.552C471.813 179.732 472.014 179.822 472.272 179.822C472.56 179.822 472.836 179.726 473.1 179.534L473.793 181.748C473.481 181.916 473.13 182.048 472.74 182.144C472.356 182.24 471.978 182.288 471.606 182.288Z" fill="#FFD6D9"/>
<rect x="347" y="272" width="170" height="132" rx="20" fill="#FBF8FB"/>
<rect x="367" y="308" width="130" height="60" rx="30" fill="white"/>
<path d="M407.073 329.558C404.398 327.278 400.418 327.688 397.962 330.222L397 331.213L396.038 330.222C393.587 327.688 389.603 327.278 386.927 329.558C383.861 332.175 383.7 336.873 386.444 339.709L395.892 349.465C396.502 350.095 397.494 350.095 398.104 349.465L407.552 339.709C410.301 336.873 410.14 332.175 407.073 329.558V329.558Z" fill="#FF5E69"/>
<path d="M423.7 344V329.15H427.957C429.385 329.15 430.504 329.462 431.314 330.086C432.124 330.71 432.529 331.643 432.529 332.885C432.529 334.427 431.893 335.516 430.621 336.152C431.659 336.314 432.454 336.713 433.006 337.349C433.564 337.979 433.843 338.807 433.843 339.833C433.843 340.697 433.648 341.441 433.258 342.065C432.868 342.689 432.313 343.169 431.593 343.505C430.873 343.835 430.021 344 429.037 344H423.7ZM426.607 335.162H427.282C428.068 335.162 428.671 335 429.091 334.676C429.511 334.346 429.721 333.875 429.721 333.263C429.721 332.645 429.517 332.183 429.109 331.877C428.701 331.565 428.092 331.409 427.282 331.409H426.607V335.162ZM426.607 341.732H428.047C428.959 341.732 429.643 341.564 430.099 341.228C430.561 340.892 430.792 340.397 430.792 339.743C430.792 339.077 430.555 338.567 430.081 338.213C429.613 337.853 428.935 337.673 428.047 337.673H426.607V341.732ZM440.225 344.288C439.211 344.288 438.296 344.081 437.48 343.667C436.664 343.247 436.016 342.671 435.536 341.939C435.056 341.201 434.816 340.352 434.816 339.392C434.816 338.432 435.053 337.586 435.527 336.854C436.007 336.116 436.655 335.54 437.471 335.126C438.293 334.706 439.211 334.496 440.225 334.496C441.245 334.496 442.163 334.706 442.979 335.126C443.795 335.54 444.44 336.116 444.914 336.854C445.394 337.586 445.634 338.432 445.634 339.392C445.634 340.352 445.394 341.201 444.914 341.939C444.44 342.671 443.795 343.247 442.979 343.667C442.163 344.081 441.245 344.288 440.225 344.288ZM440.234 341.93C440.702 341.93 441.128 341.822 441.512 341.606C441.896 341.39 442.199 341.093 442.421 340.715C442.643 340.331 442.754 339.89 442.754 339.392C442.754 338.894 442.643 338.456 442.421 338.078C442.199 337.694 441.896 337.394 441.512 337.178C441.128 336.962 440.702 336.854 440.234 336.854C439.76 336.854 439.331 336.962 438.947 337.178C438.569 337.394 438.269 337.694 438.047 338.078C437.825 338.456 437.714 338.894 437.714 339.392C437.714 339.89 437.825 340.331 438.047 340.715C438.269 341.093 438.569 341.39 438.947 341.606C439.331 341.822 439.76 341.93 440.234 341.93ZM452.311 344.288C451.297 344.288 450.382 344.081 449.566 343.667C448.75 343.247 448.102 342.671 447.622 341.939C447.142 341.201 446.902 340.352 446.902 339.392C446.902 338.432 447.139 337.586 447.613 336.854C448.093 336.116 448.741 335.54 449.557 335.126C450.379 334.706 451.297 334.496 452.311 334.496C453.331 334.496 454.249 334.706 455.065 335.126C455.881 335.54 456.526 336.116 457 336.854C457.48 337.586 457.72 338.432 457.72 339.392C457.72 340.352 457.48 341.201 457 341.939C456.526 342.671 455.881 343.247 455.065 343.667C454.249 344.081 453.331 344.288 452.311 344.288ZM452.32 341.93C452.788 341.93 453.214 341.822 453.598 341.606C453.982 341.39 454.285 341.093 454.507 340.715C454.729 340.331 454.84 339.89 454.84 339.392C454.84 338.894 454.729 338.456 454.507 338.078C454.285 337.694 453.982 337.394 453.598 337.178C453.214 336.962 452.788 336.854 452.32 336.854C451.846 336.854 451.417 336.962 451.033 337.178C450.655 337.394 450.355 337.694 450.133 338.078C449.911 338.456 449.8 338.894 449.8 339.392C449.8 339.89 449.911 340.331 450.133 340.715C450.355 341.093 450.655 341.39 451.033 341.606C451.417 341.822 451.846 341.93 452.32 341.93ZM462.346 344.288C461.566 344.288 460.867 344.165 460.249 343.919C459.637 343.673 459.127 343.313 458.719 342.839L459.88 340.985C460.264 341.393 460.666 341.705 461.086 341.921C461.506 342.137 461.926 342.245 462.346 342.245C462.58 342.245 462.781 342.206 462.949 342.128C463.123 342.05 463.258 341.939 463.354 341.795C463.456 341.645 463.507 341.465 463.507 341.255C463.507 341.015 463.438 340.826 463.3 340.688C463.168 340.55 462.964 340.424 462.688 340.31C462.412 340.19 462.055 340.04 461.617 339.86C461.245 339.704 460.888 339.527 460.546 339.329C460.204 339.131 459.925 338.879 459.709 338.573C459.499 338.267 459.394 337.88 459.394 337.412C459.394 336.842 459.553 336.341 459.871 335.909C460.189 335.471 460.627 335.129 461.185 334.883C461.749 334.637 462.397 334.514 463.129 334.514C463.585 334.514 464.062 334.583 464.56 334.721C465.064 334.859 465.601 335.069 466.171 335.351L465.226 337.124C464.452 336.626 463.759 336.377 463.147 336.377C462.805 336.377 462.532 336.452 462.328 336.602C462.124 336.752 462.022 336.941 462.022 337.169C462.022 337.385 462.127 337.574 462.337 337.736C462.553 337.892 462.814 338.033 463.12 338.159C463.432 338.279 463.729 338.39 464.011 338.492C464.473 338.66 464.881 338.846 465.235 339.05C465.595 339.254 465.877 339.521 466.081 339.851C466.285 340.175 466.387 340.61 466.387 341.156C466.387 341.822 466.225 342.389 465.901 342.857C465.583 343.319 465.121 343.673 464.515 343.919C463.915 344.165 463.192 344.288 462.346 344.288ZM471.606 344.288C470.688 344.288 469.974 343.997 469.464 343.415C468.954 342.827 468.699 342.008 468.699 340.958V336.881H467.466V334.784H468.699V331.328H471.462V334.784H473.487V336.881H471.462V340.76C471.462 341.108 471.531 341.372 471.669 341.552C471.813 341.732 472.014 341.822 472.272 341.822C472.56 341.822 472.836 341.726 473.1 341.534L473.793 343.748C473.481 343.916 473.13 344.048 472.74 344.144C472.356 344.24 471.978 344.288 471.606 344.288Z" fill="#404040"/>
<rect x="347" y="434" width="170" height="132" rx="20" fill="#FBF8FB"/>
<rect x="367" y="470" width="130" height="60" rx="30" fill="black"/>
<path d="M407.073 491.558C404.398 489.278 400.418 489.688 397.962 492.222L397 493.213L396.038 492.222C393.587 489.688 389.603 489.278 386.927 491.558C383.861 494.175 383.7 498.873 386.444 501.709L395.892 511.465C396.502 512.095 397.494 512.095 398.104 511.465L407.552 501.709C410.301 498.873 410.14 494.175 407.073 491.558V491.558Z" fill="#FF5E69"/>
<path d="M423.7 506V491.15H427.957C429.385 491.15 430.504 491.462 431.314 492.086C432.124 492.71 432.529 493.643 432.529 494.885C432.529 496.427 431.893 497.516 430.621 498.152C431.659 498.314 432.454 498.713 433.006 499.349C433.564 499.979 433.843 500.807 433.843 501.833C433.843 502.697 433.648 503.441 433.258 504.065C432.868 504.689 432.313 505.169 431.593 505.505C430.873 505.835 430.021 506 429.037 506H423.7ZM426.607 497.162H427.282C428.068 497.162 428.671 497 429.091 496.676C429.511 496.346 429.721 495.875 429.721 495.263C429.721 494.645 429.517 494.183 429.109 493.877C428.701 493.565 428.092 493.409 427.282 493.409H426.607V497.162ZM426.607 503.732H428.047C428.959 503.732 429.643 503.564 430.099 503.228C430.561 502.892 430.792 502.397 430.792 501.743C430.792 501.077 430.555 500.567 430.081 500.213C429.613 499.853 428.935 499.673 428.047 499.673H426.607V503.732ZM440.225 506.288C439.211 506.288 438.296 506.081 437.48 505.667C436.664 505.247 436.016 504.671 435.536 503.939C435.056 503.201 434.816 502.352 434.816 501.392C434.816 500.432 435.053 499.586 435.527 498.854C436.007 498.116 436.655 497.54 437.471 497.126C438.293 496.706 439.211 496.496 440.225 496.496C441.245 496.496 442.163 496.706 442.979 497.126C443.795 497.54 444.44 498.116 444.914 498.854C445.394 499.586 445.634 500.432 445.634 501.392C445.634 502.352 445.394 503.201 444.914 503.939C444.44 504.671 443.795 505.247 442.979 505.667C442.163 506.081 441.245 506.288 440.225 506.288ZM440.234 503.93C440.702 503.93 441.128 503.822 441.512 503.606C441.896 503.39 442.199 503.093 442.421 502.715C442.643 502.331 442.754 501.89 442.754 501.392C442.754 500.894 442.643 500.456 442.421 500.078C442.199 499.694 441.896 499.394 441.512 499.178C441.128 498.962 440.702 498.854 440.234 498.854C439.76 498.854 439.331 498.962 438.947 499.178C438.569 499.394 438.269 499.694 438.047 500.078C437.825 500.456 437.714 500.894 437.714 501.392C437.714 501.89 437.825 502.331 438.047 502.715C438.269 503.093 438.569 503.39 438.947 503.606C439.331 503.822 439.76 503.93 440.234 503.93ZM452.311 506.288C451.297 506.288 450.382 506.081 449.566 505.667C448.75 505.247 448.102 504.671 447.622 503.939C447.142 503.201 446.902 502.352 446.902 501.392C446.902 500.432 447.139 499.586 447.613 498.854C448.093 498.116 448.741 497.54 449.557 497.126C450.379 496.706 451.297 496.496 452.311 496.496C453.331 496.496 454.249 496.706 455.065 497.126C455.881 497.54 456.526 498.116 457 498.854C457.48 499.586 457.72 500.432 457.72 501.392C457.72 502.352 457.48 503.201 457 503.939C456.526 504.671 455.881 505.247 455.065 505.667C454.249 506.081 453.331 506.288 452.311 506.288ZM452.32 503.93C452.788 503.93 453.214 503.822 453.598 503.606C453.982 503.39 454.285 503.093 454.507 502.715C454.729 502.331 454.84 501.89 454.84 501.392C454.84 500.894 454.729 500.456 454.507 500.078C454.285 499.694 453.982 499.394 453.598 499.178C453.214 498.962 452.788 498.854 452.32 498.854C451.846 498.854 451.417 498.962 451.033 499.178C450.655 499.394 450.355 499.694 450.133 500.078C449.911 500.456 449.8 500.894 449.8 501.392C449.8 501.89 449.911 502.331 450.133 502.715C450.355 503.093 450.655 503.39 451.033 503.606C451.417 503.822 451.846 503.93 452.32 503.93ZM462.346 506.288C461.566 506.288 460.867 506.165 460.249 505.919C459.637 505.673 459.127 505.313 458.719 504.839L459.88 502.985C460.264 503.393 460.666 503.705 461.086 503.921C461.506 504.137 461.926 504.245 462.346 504.245C462.58 504.245 462.781 504.206 462.949 504.128C463.123 504.05 463.258 503.939 463.354 503.795C463.456 503.645 463.507 503.465 463.507 503.255C463.507 503.015 463.438 502.826 463.3 502.688C463.168 502.55 462.964 502.424 462.688 502.31C462.412 502.19 462.055 502.04 461.617 501.86C461.245 501.704 460.888 501.527 460.546 501.329C460.204 501.131 459.925 500.879 459.709 500.573C459.499 500.267 459.394 499.88 459.394 499.412C459.394 498.842 459.553 498.341 459.871 497.909C460.189 497.471 460.627 497.129 461.185 496.883C461.749 496.637 462.397 496.514 463.129 496.514C463.585 496.514 464.062 496.583 464.56 496.721C465.064 496.859 465.601 497.069 466.171 497.351L465.226 499.124C464.452 498.626 463.759 498.377 463.147 498.377C462.805 498.377 462.532 498.452 462.328 498.602C462.124 498.752 462.022 498.941 462.022 499.169C462.022 499.385 462.127 499.574 462.337 499.736C462.553 499.892 462.814 500.033 463.12 500.159C463.432 500.279 463.729 500.39 464.011 500.492C464.473 500.66 464.881 500.846 465.235 501.05C465.595 501.254 465.877 501.521 466.081 501.851C466.285 502.175 466.387 502.61 466.387 503.156C466.387 503.822 466.225 504.389 465.901 504.857C465.583 505.319 465.121 505.673 464.515 505.919C463.915 506.165 463.192 506.288 462.346 506.288ZM471.606 506.288C470.688 506.288 469.974 505.997 469.464 505.415C468.954 504.827 468.699 504.008 468.699 502.958V498.881H467.466V496.784H468.699V493.328H471.462V496.784H473.487V498.881H471.462V502.76C471.462 503.108 471.531 503.372 471.669 503.552C471.813 503.732 472.014 503.822 472.272 503.822C472.56 503.822 472.836 503.726 473.1 503.534L473.793 505.748C473.481 505.916 473.13 506.048 472.74 506.144C472.356 506.24 471.978 506.288 471.606 506.288Z" fill="#D1D1D1"/>
<path d="M619.277 84V72.45H625.766V74.438H620.999L621.545 73.941V77.847L620.999 77.217H625.451V79.205H620.999L621.545 78.575V84H619.277ZM627.46 84V76.832H629.609V84H627.46ZM628.538 75.341C628.304 75.341 628.09 75.285 627.894 75.173C627.702 75.0563 627.548 74.9 627.432 74.704C627.315 74.508 627.257 74.2933 627.257 74.06C627.257 73.8267 627.315 73.6143 627.432 73.423C627.548 73.2317 627.702 73.08 627.894 72.968C628.09 72.8513 628.304 72.793 628.538 72.793C628.771 72.793 628.983 72.8513 629.175 72.968C629.366 73.08 629.518 73.2317 629.63 73.423C629.746 73.6143 629.805 73.8267 629.805 74.06C629.805 74.2933 629.746 74.508 629.63 74.704C629.518 74.9 629.366 75.0563 629.175 75.173C628.983 75.285 628.771 75.341 628.538 75.341ZM631.862 84V76.832H634.011V77.861C634.277 77.4597 634.602 77.1517 634.984 76.937C635.372 76.7177 635.787 76.608 636.23 76.608C636.482 76.608 636.744 76.6453 637.014 76.72C637.285 76.7947 637.511 76.8903 637.693 77.007L636.797 78.82C636.639 78.7127 636.452 78.6287 636.237 78.568C636.027 78.5027 635.831 78.47 635.649 78.47C635.369 78.47 635.103 78.5423 634.851 78.687C634.599 78.8317 634.396 79.0207 634.242 79.254C634.088 79.4827 634.011 79.73 634.011 79.996V84H631.862ZM641.972 84.224C641.197 84.224 640.502 84.0583 639.886 83.727C639.274 83.391 638.789 82.936 638.43 82.362C638.07 81.788 637.891 81.1393 637.891 80.416C637.891 79.884 637.991 79.387 638.192 78.925C638.397 78.463 638.682 78.0593 639.046 77.714C639.41 77.364 639.832 77.0933 640.313 76.902C640.793 76.706 641.314 76.608 641.874 76.608C642.62 76.608 643.274 76.7643 643.834 77.077C644.398 77.385 644.837 77.8143 645.15 78.365C645.467 78.9157 645.626 79.5573 645.626 80.29C645.626 80.3507 645.623 80.4043 645.619 80.451C645.619 80.493 645.612 80.5747 645.598 80.696H640.103C640.103 81.06 640.184 81.3773 640.348 81.648C640.516 81.9187 640.749 82.131 641.048 82.285C641.346 82.4343 641.694 82.509 642.091 82.509C642.464 82.509 642.793 82.4367 643.078 82.292C643.367 82.1473 643.645 81.9163 643.911 81.599L645.458 82.376C645.122 82.9547 644.646 83.4073 644.03 83.734C643.414 84.0607 642.728 84.224 641.972 84.224ZM640.18 79.506H643.512C643.465 79.2307 643.365 78.9927 643.211 78.792C643.061 78.5913 642.87 78.4373 642.637 78.33C642.403 78.2227 642.14 78.169 641.846 78.169C641.533 78.169 641.258 78.2227 641.02 78.33C640.782 78.4373 640.59 78.5913 640.446 78.792C640.301 78.9927 640.212 79.2307 640.18 79.506Z" fill="#404040"/>
<rect x="547" y="110" width="170" height="132" rx="20" fill="#FBF8FB"/>
<rect x="567" y="146" width="130" height="60" rx="30" fill="#EB8D00"/>
<path d="M601.861 166C600.846 166.942 599.929 167.933 599.116 168.928C597.785 167.095 596.135 165.235 594.266 163.5C589.468 167.952 586.062 173.752 586.062 177.25C586.062 183.463 590.959 188.5 597 188.5C603.041 188.5 607.938 183.463 607.938 177.25C607.938 174.649 605.399 169.284 601.861 166V166ZM600.911 182.633C599.853 183.374 598.549 183.812 597.14 183.812C593.617 183.812 590.75 181.481 590.75 177.697C590.75 175.812 591.937 174.15 594.304 171.312C594.643 171.702 599.13 177.433 599.13 177.433L601.993 174.167C602.195 174.501 602.379 174.829 602.543 175.142C603.878 177.69 603.315 180.951 600.911 182.633V182.633Z" fill="#FFF5EA"/>
<path d="M623.7 182V167.15H627.957C629.385 167.15 630.504 167.462 631.314 168.086C632.124 168.71 632.529 169.643 632.529 170.885C632.529 172.427 631.893 173.516 630.621 174.152C631.659 174.314 632.454 174.713 633.006 175.349C633.564 175.979 633.843 176.807 633.843 177.833C633.843 178.697 633.648 179.441 633.258 180.065C632.868 180.689 632.313 181.169 631.593 181.505C630.873 181.835 630.021 182 629.037 182H623.7ZM626.607 173.162H627.282C628.068 173.162 628.671 173 629.091 172.676C629.511 172.346 629.721 171.875 629.721 171.263C629.721 170.645 629.517 170.183 629.109 169.877C628.701 169.565 628.092 169.409 627.282 169.409H626.607V173.162ZM626.607 179.732H628.047C628.959 179.732 629.643 179.564 630.099 179.228C630.561 178.892 630.792 178.397 630.792 177.743C630.792 177.077 630.555 176.567 630.081 176.213C629.613 175.853 628.935 175.673 628.047 175.673H626.607V179.732ZM640.225 182.288C639.211 182.288 638.296 182.081 637.48 181.667C636.664 181.247 636.016 180.671 635.536 179.939C635.056 179.201 634.816 178.352 634.816 177.392C634.816 176.432 635.053 175.586 635.527 174.854C636.007 174.116 636.655 173.54 637.471 173.126C638.293 172.706 639.211 172.496 640.225 172.496C641.245 172.496 642.163 172.706 642.979 173.126C643.795 173.54 644.44 174.116 644.914 174.854C645.394 175.586 645.634 176.432 645.634 177.392C645.634 178.352 645.394 179.201 644.914 179.939C644.44 180.671 643.795 181.247 642.979 181.667C642.163 182.081 641.245 182.288 640.225 182.288ZM640.234 179.93C640.702 179.93 641.128 179.822 641.512 179.606C641.896 179.39 642.199 179.093 642.421 178.715C642.643 178.331 642.754 177.89 642.754 177.392C642.754 176.894 642.643 176.456 642.421 176.078C642.199 175.694 641.896 175.394 641.512 175.178C641.128 174.962 640.702 174.854 640.234 174.854C639.76 174.854 639.331 174.962 638.947 175.178C638.569 175.394 638.269 175.694 638.047 176.078C637.825 176.456 637.714 176.894 637.714 177.392C637.714 177.89 637.825 178.331 638.047 178.715C638.269 179.093 638.569 179.39 638.947 179.606C639.331 179.822 639.76 179.93 640.234 179.93ZM652.311 182.288C651.297 182.288 650.382 182.081 649.566 181.667C648.75 181.247 648.102 180.671 647.622 179.939C647.142 179.201 646.902 178.352 646.902 177.392C646.902 176.432 647.139 175.586 647.613 174.854C648.093 174.116 648.741 173.54 649.557 173.126C650.379 172.706 651.297 172.496 652.311 172.496C653.331 172.496 654.249 172.706 655.065 173.126C655.881 173.54 656.526 174.116 657 174.854C657.48 175.586 657.72 176.432 657.72 177.392C657.72 178.352 657.48 179.201 657 179.939C656.526 180.671 655.881 181.247 655.065 181.667C654.249 182.081 653.331 182.288 652.311 182.288ZM652.32 179.93C652.788 179.93 653.214 179.822 653.598 179.606C653.982 179.39 654.285 179.093 654.507 178.715C654.729 178.331 654.84 177.89 654.84 177.392C654.84 176.894 654.729 176.456 654.507 176.078C654.285 175.694 653.982 175.394 653.598 175.178C653.214 174.962 652.788 174.854 652.32 174.854C651.846 174.854 651.417 174.962 651.033 175.178C650.655 175.394 650.355 175.694 650.133 176.078C649.911 176.456 649.8 176.894 649.8 177.392C649.8 177.89 649.911 178.331 650.133 178.715C650.355 179.093 650.655 179.39 651.033 179.606C651.417 179.822 651.846 179.93 652.32 179.93ZM662.346 182.288C661.566 182.288 660.867 182.165 660.249 181.919C659.637 181.673 659.127 181.313 658.719 180.839L659.88 178.985C660.264 179.393 660.666 179.705 661.086 179.921C661.506 180.137 661.926 180.245 662.346 180.245C662.58 180.245 662.781 180.206 662.949 180.128C663.123 180.05 663.258 179.939 663.354 179.795C663.456 179.645 663.507 179.465 663.507 179.255C663.507 179.015 663.438 178.826 663.3 178.688C663.168 178.55 662.964 178.424 662.688 178.31C662.412 178.19 662.055 178.04 661.617 177.86C661.245 177.704 660.888 177.527 660.546 177.329C660.204 177.131 659.925 176.879 659.709 176.573C659.499 176.267 659.394 175.88 659.394 175.412C659.394 174.842 659.553 174.341 659.871 173.909C660.189 173.471 660.627 173.129 661.185 172.883C661.749 172.637 662.397 172.514 663.129 172.514C663.585 172.514 664.062 172.583 664.56 172.721C665.064 172.859 665.601 173.069 666.171 173.351L665.226 175.124C664.452 174.626 663.759 174.377 663.147 174.377C662.805 174.377 662.532 174.452 662.328 174.602C662.124 174.752 662.022 174.941 662.022 175.169C662.022 175.385 662.127 175.574 662.337 175.736C662.553 175.892 662.814 176.033 663.12 176.159C663.432 176.279 663.729 176.39 664.011 176.492C664.473 176.66 664.881 176.846 665.235 177.05C665.595 177.254 665.877 177.521 666.081 177.851C666.285 178.175 666.387 178.61 666.387 179.156C666.387 179.822 666.225 180.389 665.901 180.857C665.583 181.319 665.121 181.673 664.515 181.919C663.915 182.165 663.192 182.288 662.346 182.288ZM671.606 182.288C670.688 182.288 669.974 181.997 669.464 181.415C668.954 180.827 668.699 180.008 668.699 178.958V174.881H667.466V172.784H668.699V169.328H671.462V172.784H673.487V174.881H671.462V178.76C671.462 179.108 671.531 179.372 671.669 179.552C671.813 179.732 672.014 179.822 672.272 179.822C672.56 179.822 672.836 179.726 673.1 179.534L673.793 181.748C673.481 181.916 673.13 182.048 672.74 182.144C672.356 182.24 671.978 182.288 671.606 182.288Z" fill="#FFEF9B"/>
<rect x="547" y="272" width="170" height="132" rx="20" fill="#FBF8FB"/>
<rect x="567" y="308" width="130" height="60" rx="30" fill="white"/>
<path d="M601.861 328C600.846 328.942 599.929 329.933 599.116 330.928C597.785 329.095 596.135 327.235 594.266 325.5C589.468 329.952 586.062 335.752 586.062 339.25C586.062 345.463 590.959 350.5 597 350.5C603.041 350.5 607.938 345.463 607.938 339.25C607.938 336.649 605.399 331.284 601.861 328V328ZM600.911 344.633C599.853 345.374 598.549 345.812 597.14 345.812C593.617 345.812 590.75 343.481 590.75 339.697C590.75 337.812 591.937 336.15 594.304 333.312C594.643 333.702 599.13 339.433 599.13 339.433L601.993 336.167C602.195 336.501 602.379 336.829 602.543 337.142C603.878 339.69 603.315 342.951 600.911 344.633V344.633Z" fill="#EB8D00"/>
<path d="M623.7 344V329.15H627.957C629.385 329.15 630.504 329.462 631.314 330.086C632.124 330.71 632.529 331.643 632.529 332.885C632.529 334.427 631.893 335.516 630.621 336.152C631.659 336.314 632.454 336.713 633.006 337.349C633.564 337.979 633.843 338.807 633.843 339.833C633.843 340.697 633.648 341.441 633.258 342.065C632.868 342.689 632.313 343.169 631.593 343.505C630.873 343.835 630.021 344 629.037 344H623.7ZM626.607 335.162H627.282C628.068 335.162 628.671 335 629.091 334.676C629.511 334.346 629.721 333.875 629.721 333.263C629.721 332.645 629.517 332.183 629.109 331.877C628.701 331.565 628.092 331.409 627.282 331.409H626.607V335.162ZM626.607 341.732H628.047C628.959 341.732 629.643 341.564 630.099 341.228C630.561 340.892 630.792 340.397 630.792 339.743C630.792 339.077 630.555 338.567 630.081 338.213C629.613 337.853 628.935 337.673 628.047 337.673H626.607V341.732ZM640.225 344.288C639.211 344.288 638.296 344.081 637.48 343.667C636.664 343.247 636.016 342.671 635.536 341.939C635.056 341.201 634.816 340.352 634.816 339.392C634.816 338.432 635.053 337.586 635.527 336.854C636.007 336.116 636.655 335.54 637.471 335.126C638.293 334.706 639.211 334.496 640.225 334.496C641.245 334.496 642.163 334.706 642.979 335.126C643.795 335.54 644.44 336.116 644.914 336.854C645.394 337.586 645.634 338.432 645.634 339.392C645.634 340.352 645.394 341.201 644.914 341.939C644.44 342.671 643.795 343.247 642.979 343.667C642.163 344.081 641.245 344.288 640.225 344.288ZM640.234 341.93C640.702 341.93 641.128 341.822 641.512 341.606C641.896 341.39 642.199 341.093 642.421 340.715C642.643 340.331 642.754 339.89 642.754 339.392C642.754 338.894 642.643 338.456 642.421 338.078C642.199 337.694 641.896 337.394 641.512 337.178C641.128 336.962 640.702 336.854 640.234 336.854C639.76 336.854 639.331 336.962 638.947 337.178C638.569 337.394 638.269 337.694 638.047 338.078C637.825 338.456 637.714 338.894 637.714 339.392C637.714 339.89 637.825 340.331 638.047 340.715C638.269 341.093 638.569 341.39 638.947 341.606C639.331 341.822 639.76 341.93 640.234 341.93ZM652.311 344.288C651.297 344.288 650.382 344.081 649.566 343.667C648.75 343.247 648.102 342.671 647.622 341.939C647.142 341.201 646.902 340.352 646.902 339.392C646.902 338.432 647.139 337.586 647.613 336.854C648.093 336.116 648.741 335.54 649.557 335.126C650.379 334.706 651.297 334.496 652.311 334.496C653.331 334.496 654.249 334.706 655.065 335.126C655.881 335.54 656.526 336.116 657 336.854C657.48 337.586 657.72 338.432 657.72 339.392C657.72 340.352 657.48 341.201 657 341.939C656.526 342.671 655.881 343.247 655.065 343.667C654.249 344.081 653.331 344.288 652.311 344.288ZM652.32 341.93C652.788 341.93 653.214 341.822 653.598 341.606C653.982 341.39 654.285 341.093 654.507 340.715C654.729 340.331 654.84 339.89 654.84 339.392C654.84 338.894 654.729 338.456 654.507 338.078C654.285 337.694 653.982 337.394 653.598 337.178C653.214 336.962 652.788 336.854 652.32 336.854C651.846 336.854 651.417 336.962 651.033 337.178C650.655 337.394 650.355 337.694 650.133 338.078C649.911 338.456 649.8 338.894 649.8 339.392C649.8 339.89 649.911 340.331 650.133 340.715C650.355 341.093 650.655 341.39 651.033 341.606C651.417 341.822 651.846 341.93 652.32 341.93ZM662.346 344.288C661.566 344.288 660.867 344.165 660.249 343.919C659.637 343.673 659.127 343.313 658.719 342.839L659.88 340.985C660.264 341.393 660.666 341.705 661.086 341.921C661.506 342.137 661.926 342.245 662.346 342.245C662.58 342.245 662.781 342.206 662.949 342.128C663.123 342.05 663.258 341.939 663.354 341.795C663.456 341.645 663.507 341.465 663.507 341.255C663.507 341.015 663.438 340.826 663.3 340.688C663.168 340.55 662.964 340.424 662.688 340.31C662.412 340.19 662.055 340.04 661.617 339.86C661.245 339.704 660.888 339.527 660.546 339.329C660.204 339.131 659.925 338.879 659.709 338.573C659.499 338.267 659.394 337.88 659.394 337.412C659.394 336.842 659.553 336.341 659.871 335.909C660.189 335.471 660.627 335.129 661.185 334.883C661.749 334.637 662.397 334.514 663.129 334.514C663.585 334.514 664.062 334.583 664.56 334.721C665.064 334.859 665.601 335.069 666.171 335.351L665.226 337.124C664.452 336.626 663.759 336.377 663.147 336.377C662.805 336.377 662.532 336.452 662.328 336.602C662.124 336.752 662.022 336.941 662.022 337.169C662.022 337.385 662.127 337.574 662.337 337.736C662.553 337.892 662.814 338.033 663.12 338.159C663.432 338.279 663.729 338.39 664.011 338.492C664.473 338.66 664.881 338.846 665.235 339.05C665.595 339.254 665.877 339.521 666.081 339.851C666.285 340.175 666.387 340.61 666.387 341.156C666.387 341.822 666.225 342.389 665.901 342.857C665.583 343.319 665.121 343.673 664.515 343.919C663.915 344.165 663.192 344.288 662.346 344.288ZM671.606 344.288C670.688 344.288 669.974 343.997 669.464 343.415C668.954 342.827 668.699 342.008 668.699 340.958V336.881H667.466V334.784H668.699V331.328H671.462V334.784H673.487V336.881H671.462V340.76C671.462 341.108 671.531 341.372 671.669 341.552C671.813 341.732 672.014 341.822 672.272 341.822C672.56 341.822 672.836 341.726 673.1 341.534L673.793 343.748C673.481 343.916 673.13 344.048 672.74 344.144C672.356 344.24 671.978 344.288 671.606 344.288Z" fill="#404040"/>
<rect x="547" y="434" width="170" height="132" rx="20" fill="#FBF8FB"/>
<rect x="567" y="470" width="130" height="60" rx="30" fill="black"/>
<path d="M601.861 490C600.846 490.942 599.929 491.933 599.116 492.928C597.785 491.095 596.135 489.235 594.266 487.5C589.468 491.952 586.062 497.752 586.062 501.25C586.062 507.463 590.959 512.5 597 512.5C603.041 512.5 607.938 507.463 607.938 501.25C607.938 498.649 605.399 493.284 601.861 490V490ZM600.911 506.633C599.853 507.374 598.549 507.812 597.14 507.812C593.617 507.812 590.75 505.481 590.75 501.697C590.75 499.812 591.937 498.15 594.304 495.312C594.643 495.702 599.13 501.433 599.13 501.433L601.993 498.167C602.195 498.501 602.379 498.829 602.543 499.142C603.878 501.69 603.315 504.951 600.911 506.633V506.633Z" fill="#EB8D00"/>
<path d="M623.7 506V491.15H627.957C629.385 491.15 630.504 491.462 631.314 492.086C632.124 492.71 632.529 493.643 632.529 494.885C632.529 496.427 631.893 497.516 630.621 498.152C631.659 498.314 632.454 498.713 633.006 499.349C633.564 499.979 633.843 500.807 633.843 501.833C633.843 502.697 633.648 503.441 633.258 504.065C632.868 504.689 632.313 505.169 631.593 505.505C630.873 505.835 630.021 506 629.037 506H623.7ZM626.607 497.162H627.282C628.068 497.162 628.671 497 629.091 496.676C629.511 496.346 629.721 495.875 629.721 495.263C629.721 494.645 629.517 494.183 629.109 493.877C628.701 493.565 628.092 493.409 627.282 493.409H626.607V497.162ZM626.607 503.732H628.047C628.959 503.732 629.643 503.564 630.099 503.228C630.561 502.892 630.792 502.397 630.792 501.743C630.792 501.077 630.555 500.567 630.081 500.213C629.613 499.853 628.935 499.673 628.047 499.673H626.607V503.732ZM640.225 506.288C639.211 506.288 638.296 506.081 637.48 505.667C636.664 505.247 636.016 504.671 635.536 503.939C635.056 503.201 634.816 502.352 634.816 501.392C634.816 500.432 635.053 499.586 635.527 498.854C636.007 498.116 636.655 497.54 637.471 497.126C638.293 496.706 639.211 496.496 640.225 496.496C641.245 496.496 642.163 496.706 642.979 497.126C643.795 497.54 644.44 498.116 644.914 498.854C645.394 499.586 645.634 500.432 645.634 501.392C645.634 502.352 645.394 503.201 644.914 503.939C644.44 504.671 643.795 505.247 642.979 505.667C642.163 506.081 641.245 506.288 640.225 506.288ZM640.234 503.93C640.702 503.93 641.128 503.822 641.512 503.606C641.896 503.39 642.199 503.093 642.421 502.715C642.643 502.331 642.754 501.89 642.754 501.392C642.754 500.894 642.643 500.456 642.421 500.078C642.199 499.694 641.896 499.394 641.512 499.178C641.128 498.962 640.702 498.854 640.234 498.854C639.76 498.854 639.331 498.962 638.947 499.178C638.569 499.394 638.269 499.694 638.047 500.078C637.825 500.456 637.714 500.894 637.714 501.392C637.714 501.89 637.825 502.331 638.047 502.715C638.269 503.093 638.569 503.39 638.947 503.606C639.331 503.822 639.76 503.93 640.234 503.93ZM652.311 506.288C651.297 506.288 650.382 506.081 649.566 505.667C648.75 505.247 648.102 504.671 647.622 503.939C647.142 503.201 646.902 502.352 646.902 501.392C646.902 500.432 647.139 499.586 647.613 498.854C648.093 498.116 648.741 497.54 649.557 497.126C650.379 496.706 651.297 496.496 652.311 496.496C653.331 496.496 654.249 496.706 655.065 497.126C655.881 497.54 656.526 498.116 657 498.854C657.48 499.586 657.72 500.432 657.72 501.392C657.72 502.352 657.48 503.201 657 503.939C656.526 504.671 655.881 505.247 655.065 505.667C654.249 506.081 653.331 506.288 652.311 506.288ZM652.32 503.93C652.788 503.93 653.214 503.822 653.598 503.606C653.982 503.39 654.285 503.093 654.507 502.715C654.729 502.331 654.84 501.89 654.84 501.392C654.84 500.894 654.729 500.456 654.507 500.078C654.285 499.694 653.982 499.394 653.598 499.178C653.214 498.962 652.788 498.854 652.32 498.854C651.846 498.854 651.417 498.962 651.033 499.178C650.655 499.394 650.355 499.694 650.133 500.078C649.911 500.456 649.8 500.894 649.8 501.392C649.8 501.89 649.911 502.331 650.133 502.715C650.355 503.093 650.655 503.39 651.033 503.606C651.417 503.822 651.846 503.93 652.32 503.93ZM662.346 506.288C661.566 506.288 660.867 506.165 660.249 505.919C659.637 505.673 659.127 505.313 658.719 504.839L659.88 502.985C660.264 503.393 660.666 503.705 661.086 503.921C661.506 504.137 661.926 504.245 662.346 504.245C662.58 504.245 662.781 504.206 662.949 504.128C663.123 504.05 663.258 503.939 663.354 503.795C663.456 503.645 663.507 503.465 663.507 503.255C663.507 503.015 663.438 502.826 663.3 502.688C663.168 502.55 662.964 502.424 662.688 502.31C662.412 502.19 662.055 502.04 661.617 501.86C661.245 501.704 660.888 501.527 660.546 501.329C660.204 501.131 659.925 500.879 659.709 500.573C659.499 500.267 659.394 499.88 659.394 499.412C659.394 498.842 659.553 498.341 659.871 497.909C660.189 497.471 660.627 497.129 661.185 496.883C661.749 496.637 662.397 496.514 663.129 496.514C663.585 496.514 664.062 496.583 664.56 496.721C665.064 496.859 665.601 497.069 666.171 497.351L665.226 499.124C664.452 498.626 663.759 498.377 663.147 498.377C662.805 498.377 662.532 498.452 662.328 498.602C662.124 498.752 662.022 498.941 662.022 499.169C662.022 499.385 662.127 499.574 662.337 499.736C662.553 499.892 662.814 500.033 663.12 500.159C663.432 500.279 663.729 500.39 664.011 500.492C664.473 500.66 664.881 500.846 665.235 501.05C665.595 501.254 665.877 501.521 666.081 501.851C666.285 502.175 666.387 502.61 666.387 503.156C666.387 503.822 666.225 504.389 665.901 504.857C665.583 505.319 665.121 505.673 664.515 505.919C663.915 506.165 663.192 506.288 662.346 506.288ZM671.606 506.288C670.688 506.288 669.974 505.997 669.464 505.415C668.954 504.827 668.699 504.008 668.699 502.958V498.881H667.466V496.784H668.699V493.328H671.462V496.784H673.487V498.881H671.462V502.76C671.462 503.108 671.531 503.372 671.669 503.552C671.813 503.732 672.014 503.822 672.272 503.822C672.56 503.822 672.836 503.726 673.1 503.534L673.793 505.748C673.481 505.916 673.13 506.048 672.74 506.144C672.356 506.24 671.978 506.288 671.606 506.288Z" fill="#D1D1D1"/>
</g>
<defs>
<filter id="filter0_d_5702_120407" x="10" y="12" width="767" height="616" filterUnits="userSpaceOnUse" color-interpolation-filters="sRGB">
<feFlood flood-opacity="0" result="BackgroundImageFix"/>
<feColorMatrix in="SourceAlpha" type="matrix" values="0 0 0 0 0 0 0 0 0 0 0 0 0 0 0 0 0 0 127 0" result="hardAlpha"/>
<feOffset dy="2"/>
<feGaussianBlur stdDeviation="10"/>
<feComposite in2="hardAlpha" operator="out"/>
<feColorMatrix type="matrix" values="0 0 0 0 0.862745 0 0 0 0 0.803922 0 0 0 0 0.894118 0 0 0 0.5 0"/>
<feBlend mode="multiply" in2="BackgroundImageFix" result="effect1_dropShadow_5702_120407"/>
<feBlend mode="normal" in="SourceGraphic" in2="effect1_dropShadow_5702_120407" result="shape"/>
</filter>
</defs>
</svg>
