<svg width="24" height="25" viewBox="0 0 24 25" fill="none" xmlns="http://www.w3.org/2000/svg">
<path d="M18.0047 10.4921L17.7485 10.939C17.6547 11.1046 17.4547 11.1734 17.2766 11.1078C16.9078 10.9703 16.5702 10.7734 16.2733 10.5265C16.1296 10.4077 16.0921 10.1983 16.1858 10.0358L16.4421 9.5889C16.2265 9.33888 16.0577 9.04823 15.9452 8.73258H15.4295C15.242 8.73258 15.0795 8.59819 15.0482 8.41068C14.9857 8.03565 14.9826 7.64186 15.0482 7.25121C15.0795 7.06369 15.242 6.92618 15.4295 6.92618H15.9452C16.0577 6.61053 16.2265 6.31988 16.4421 6.06986L16.1858 5.62295C16.0921 5.46043 16.1265 5.25104 16.2733 5.13228C16.5702 4.88538 16.9109 4.68849 17.2766 4.55098C17.4547 4.48535 17.6547 4.55411 17.7485 4.71975L18.0047 5.16666C18.3329 5.10728 18.6673 5.10728 18.9954 5.16666L19.2517 4.71975C19.3455 4.55411 19.5455 4.48535 19.7236 4.55098C20.0924 4.68849 20.4299 4.88538 20.7268 5.13228C20.8706 5.25104 20.9081 5.46043 20.8143 5.62295L20.5581 6.06986C20.7737 6.31988 20.9425 6.61053 21.055 6.92618H21.5707C21.7582 6.92618 21.9207 7.06056 21.9519 7.24808C22.0144 7.62311 22.0176 8.01689 21.9519 8.40755C21.9207 8.59507 21.7582 8.73258 21.5707 8.73258H21.055C20.9425 9.04823 20.7737 9.33888 20.5581 9.5889L20.8143 10.0358C20.9081 10.1983 20.8737 10.4077 20.7268 10.5265C20.4299 10.7734 20.0893 10.9703 19.7236 11.1078C19.5455 11.1734 19.3455 11.1046 19.2517 10.939L18.9954 10.4921C18.6704 10.5515 18.3329 10.5515 18.0047 10.4921ZM17.6766 8.65445C18.8798 9.57952 20.2518 8.20753 19.3267 7.00431C18.1235 6.07611 16.7515 7.45122 17.6766 8.65445ZM14.0732 13.4642L15.1264 13.9893C15.442 14.1705 15.5795 14.5549 15.4545 14.8987C15.1764 15.655 14.6295 16.3488 14.1232 16.9551C13.8919 17.2333 13.4919 17.302 13.1762 17.1208L12.2668 16.5957C11.7667 17.0239 11.1854 17.3645 10.551 17.5864V18.6365C10.551 18.9991 10.2916 19.3116 9.93532 19.3741C9.16651 19.5053 8.36019 19.5116 7.56325 19.3741C7.20385 19.3116 6.9382 19.0022 6.9382 18.6365V17.5864C6.30377 17.3614 5.72248 17.0239 5.22243 16.5957L4.31298 17.1176C4.00046 17.2989 3.5973 17.2302 3.36603 16.952C2.85974 16.3457 2.32532 15.6519 2.04717 14.8987C1.92216 14.5581 2.05967 14.1737 2.37532 13.9893L3.41604 13.4642C3.29415 12.811 3.29415 12.1391 3.41604 11.4828L2.37532 10.9546C2.05967 10.7734 1.91904 10.389 2.04717 10.0483C2.32532 9.292 2.85974 8.59819 3.36603 7.99189C3.5973 7.71374 3.99733 7.64499 4.31298 7.82625L5.22243 8.3513C5.72248 7.92314 6.30377 7.58248 6.9382 7.36059V6.30738C6.9382 5.94797 7.19447 5.63545 7.55075 5.57294C8.31957 5.44168 9.12901 5.43543 9.92595 5.56982C10.2854 5.63232 10.551 5.94172 10.551 6.30738V7.35746C11.1854 7.58248 11.7667 7.92001 12.2668 8.34817L13.1762 7.82313C13.4887 7.64186 13.8919 7.71062 14.1232 7.98877C14.6295 8.59507 15.1608 9.28887 15.4389 10.0452C15.5639 10.3858 15.442 10.7702 15.1264 10.9546L14.0732 11.4797C14.1951 12.136 14.1951 12.8079 14.0732 13.4642ZM10.3979 14.1236C12.248 11.7172 9.50091 8.9701 7.09446 10.8203C5.24431 13.2267 7.99141 15.9738 10.3979 14.1236ZM18.0047 19.8335L17.7485 20.2804C17.6547 20.446 17.4547 20.5148 17.2766 20.4492C16.9078 20.3117 16.5702 20.1148 16.2733 19.8679C16.1296 19.7491 16.0921 19.5397 16.1858 19.3772L16.4421 18.9303C16.2265 18.6803 16.0577 18.3896 15.9452 18.074H15.4295C15.242 18.074 15.0795 17.9396 15.0482 17.7521C14.9857 17.377 14.9826 16.9833 15.0482 16.5926C15.0795 16.4051 15.242 16.2676 15.4295 16.2676H15.9452C16.0577 15.9519 16.2265 15.6613 16.4421 15.4113L16.1858 14.9643C16.0921 14.8018 16.1265 14.5924 16.2733 14.4737C16.5702 14.2268 16.9109 14.0299 17.2766 13.8924C17.4547 13.8267 17.6547 13.8955 17.7485 14.0611L18.0047 14.5081C18.3329 14.4487 18.6673 14.4487 18.9954 14.5081L19.2517 14.0611C19.3455 13.8955 19.5455 13.8267 19.7236 13.8924C20.0924 14.0299 20.4299 14.2268 20.7268 14.4737C20.8706 14.5924 20.9081 14.8018 20.8143 14.9643L20.5581 15.4113C20.7737 15.6613 20.9425 15.9519 21.055 16.2676H21.5707C21.7582 16.2676 21.9207 16.402 21.9519 16.5895C22.0144 16.9645 22.0176 17.3583 21.9519 17.7489C21.9207 17.9365 21.7582 18.074 21.5707 18.074H21.055C20.9425 18.3896 20.7737 18.6803 20.5581 18.9303L20.8143 19.3772C20.9081 19.5397 20.8737 19.7491 20.7268 19.8679C20.4299 20.1148 20.0893 20.3117 19.7236 20.4492C19.5455 20.5148 19.3455 20.446 19.2517 20.2804L18.9954 19.8335C18.6704 19.8929 18.3329 19.8929 18.0047 19.8335ZM17.6766 17.9927C18.8798 18.9178 20.2518 17.5458 19.3267 16.3426C18.1235 15.4175 16.7515 16.7895 17.6766 17.9927Z" fill="#867F9B"/>
</svg>
