<svg width="24" height="24" viewBox="0 0 24 24" fill="none" xmlns="http://www.w3.org/2000/svg">
<path d="M7.55556 18.6666C6.66667 18.6666 5.77778 17.8889 5.33333 17.5555C3.11111 16 2.44444 15.4444 2 15.1111V19.7778C2 20.3913 2.49757 20.8889 3.11111 20.8889H12C12.6135 20.8889 13.1111 20.3913 13.1111 19.7778V15.1111C12.6667 15.4444 12 16 9.77778 17.5555C9.33333 17.8889 8.44444 18.6666 7.55556 18.6666ZM12 12H3.11111C2.49757 12 2 12.4975 2 13.1111V13.6666C2.88889 14.3333 2.77778 14.3333 6 16.6666C6.33333 16.8889 7 17.5555 7.55556 17.5555C8.11111 17.5555 8.77778 16.8889 9.11111 16.7778C12.3333 14.4444 12.2222 14.4444 13.1111 13.7778V13.1111C13.1111 12.4975 12.6135 12 12 12ZM20.8889 8.66664H9.77778C9.16424 8.66664 8.66667 9.16421 8.66667 9.77775V10.8889H12C13.1531 10.8889 14.1038 11.7715 14.2122 12.8965L14.2222 12.8889V17.5555H20.8889C21.5024 17.5555 22 17.058 22 16.4444V9.77775C22 9.16421 21.5024 8.66664 20.8889 8.66664ZM19.7778 13.1111H17.5556V10.8889H19.7778V13.1111ZM7.55556 9.77775C7.55556 8.5524 8.55243 7.55553 9.77778 7.55553H17.5556V4.2222C17.5556 3.60865 17.058 3.11108 16.4444 3.11108H5.33333C4.71979 3.11108 4.22222 3.60865 4.22222 4.2222V10.8889H7.55556V9.77775Z" fill="#867F9B"/>
</svg>
