<svg width="512" height="512" viewBox="0 0 512 512" fill="none" xmlns="http://www.w3.org/2000/svg">
<g clip-path="url(#clip0_502_37)">
<path d="M256 512C397.385 512 512 397.385 512 256C512 114.615 397.385 0 256 0C114.615 0 0 114.615 0 256C0 397.385 114.615 512 256 512Z" fill="#DA30F8"/>
<path fill-rule="evenodd" clip-rule="evenodd" d="M197.894 313.615H102.4V239.321C102.4 163.826 163.478 102.4 238.555 102.4H314.114V198.384H409.6V272.678C409.6 348.18 348.523 409.599 273.446 409.599H197.894V313.615ZM313.753 198.794H238.555C216.334 198.794 198.255 216.972 198.255 239.321V313.205H273.453C295.674 313.205 313.753 295.027 313.753 272.678V198.794Z" fill="#F6F6F0"/>
</g>
<defs>
<clipPath id="clip0_502_37">
<rect width="512" height="512" fill="white"/>
</clipPath>
</defs>
</svg>
