<svg id="Layer_1" data-name="Layer 1" xmlns="http://www.w3.org/2000/svg" viewBox="0 0 863 867"><defs><style>.cls-1{fill:#fd5e68;}.cls-2{fill:#0188b5;}.cls-3{fill:#fff;}</style></defs><circle cx="431.3" cy="431.52" r="214"/><path class="cls-1" d="M429.34,377.37a51.75,51.75,0,0,0-51.75,51.75V535.84c0,.51,0,1,0,1.52.57,12,9.42,22,21.12,25a134.6,134.6,0,0,0,33.75,4c73.54-.44,133.64-60.53,134.08-134.08a134.6,134.6,0,0,0-4-33.75c-2.94-11.7-12.91-20.55-25-21.12C537.08,377.38,429.34,377.37,429.34,377.37Z"/><path class="cls-2" d="M296.76,428.88a135.26,135.26,0,0,0,4.59,37.66,26.84,26.84,0,0,0,24.44,19.95l1.47,0H434a51.75,51.75,0,0,0,51.75-51.75V328.06c0-.51,0-1,0-1.51a28.67,28.67,0,0,0-22-26.2,135.2,135.2,0,0,0-34.36-3.81C357,297.76,298.11,356.57,296.76,428.88Z"/><path class="cls-3" d="M429.34,377.37a51.75,51.75,0,0,0-51.75,51.75v57.4H434a51.75,51.75,0,0,0,51.75-51.75v-57.4Z"/></svg>