<svg width="128" height="32" viewBox="0 0 128 32" fill="none" xmlns="http://www.w3.org/2000/svg">
<path d="M14.9916 30.9832C23.2712 30.9832 29.9832 24.2712 29.9832 15.9916C29.9832 7.71196 23.2712 1 14.9916 1C6.71196 1 0 7.71196 0 15.9916C0 24.2712 6.71196 30.9832 14.9916 30.9832Z" fill="#323C3D"/>
<path d="M14.8568 12.206C13.8929 12.206 12.9686 12.5889 12.287 13.2705C11.6054 13.952 11.2227 14.8764 11.2227 15.8403V23.4287C11.269 23.8264 11.4356 24.2006 11.7002 24.5012C11.9647 24.8019 12.3147 25.0147 12.7033 25.1112C13.48 25.3002 14.2762 25.3962 15.0756 25.3972C17.5619 25.371 19.9391 24.3716 21.6974 22.6134C23.4556 20.8552 24.455 18.4781 24.4812 15.9917C24.4814 15.1923 24.3853 14.3958 24.1951 13.6193C24.1007 13.2296 23.8886 12.8784 23.5876 12.6134C23.2865 12.3485 22.9111 12.1827 22.5126 12.1387L14.8568 12.206Z" fill="#FF5E69"/>
<path d="M5.56931 15.8235C5.54687 16.7149 5.65447 17.6048 5.8889 18.4651C5.98702 18.8452 6.20242 19.1847 6.50445 19.4354C6.80649 19.6861 7.17983 19.8352 7.57146 19.8616H15.143C16.1068 19.8616 17.0312 19.4788 17.7128 18.7972C18.3944 18.1156 18.7773 17.1912 18.7773 16.2273V8.65581C18.7503 8.22259 18.5855 7.80936 18.307 7.47641C18.0285 7.14345 17.6509 6.90823 17.2293 6.80504C16.4406 6.62146 15.6332 6.5311 14.8234 6.53582C12.3822 6.5959 10.0581 7.59471 8.33448 9.32456C6.6109 11.0544 5.62053 13.3821 5.56931 15.8235Z" fill="#0089B8"/>
<path d="M14.8568 12.206C13.8929 12.206 12.9686 12.5889 12.287 13.2705C11.6054 13.9521 11.2227 14.8764 11.2227 15.8403V19.828H15.1766C16.1405 19.828 17.0649 19.4451 17.7465 18.7635C18.428 18.0819 18.811 17.1575 18.811 16.1937V12.1724L14.8568 12.206Z" fill="white"/>
<path d="M74.6429 8.13672H77.1857L84.0558 23.9178H81.1561L79.5725 20.1349H72.805C72.6223 20.1349 72.4436 20.1889 72.2913 20.29C72.1389 20.3912 72.0195 20.535 71.948 20.7038L70.5825 23.9186H67.7725L74.6429 8.13672ZM78.2649 16.9886L75.8697 11.4263L73.1932 17.6938H77.8028C77.8861 17.6937 77.968 17.673 78.0413 17.6333C78.1146 17.5937 78.177 17.5364 78.2228 17.4666C78.2686 17.3968 78.2964 17.3167 78.3038 17.2335C78.3111 17.1502 78.2977 17.0665 78.2649 16.9897V16.9886Z" fill="black"/>
<path d="M107.041 8.24854H109.785V14.7622H116.609C116.775 14.7622 116.934 14.6961 117.051 14.5785C117.169 14.4608 117.235 14.3012 117.235 14.1348V8.24854H119.978V23.9174H117.235V17.3141H110.411C110.245 17.3141 110.085 17.3804 109.968 17.4985C109.85 17.6166 109.784 17.7767 109.784 17.9437V23.9174H107.041V8.24854Z" fill="black"/>
<path d="M94.7339 24.4292C93.3023 24.4292 92.1021 23.9966 91.1666 23.1436C90.2465 22.2918 89.6652 21.0803 89.4382 19.5421L89.4209 19.4266L92.1457 18.824C92.1457 18.824 92.4598 20.5344 92.7244 20.8792L92.7266 20.8825C93.2097 21.5558 93.8969 21.8825 94.828 21.8825C95.5525 21.8825 96.1611 21.6366 96.6364 21.1514C97.1118 20.6662 97.3557 20.0403 97.3557 19.2921C97.3586 19.0108 97.3165 18.7308 97.231 18.4629C97.1467 18.212 97.0157 17.9795 96.845 17.7777C96.6444 17.5464 96.4114 17.3455 96.1533 17.1814C95.8261 16.9713 95.4815 16.7897 95.1233 16.6388L93.5618 15.9866C91.3039 15.0288 90.159 13.6014 90.159 11.7436C90.159 10.4906 90.6429 9.42843 91.5984 8.5862C92.5539 7.74398 93.7434 7.3125 95.1535 7.3125C97.0597 7.3125 98.5681 8.25435 99.6362 10.1125L99.6982 10.2199L97.5 11.5269L97.4369 11.4158C97.0789 10.7925 96.7357 10.3825 96.4227 10.1981L96.4183 10.1955C96.0906 9.98509 95.658 9.87843 95.1325 9.87843C94.4878 9.87843 93.9471 10.0636 93.5249 10.4273C93.1023 10.7851 92.8975 11.2221 92.8975 11.7636C92.8975 12.4973 93.4643 13.1029 94.5822 13.564L96.1976 14.2269C97.5262 14.7662 98.5142 15.4358 99.1331 16.2181C99.7521 17.0003 100.073 17.9829 100.073 19.1229C100.073 20.6458 99.559 21.9229 98.5456 22.9181C97.5259 23.921 96.2434 24.4292 94.7339 24.4292Z" fill="black"/>
<path d="M62.3225 23.9553L60.4418 8.146H57.855H57.3849L52.6823 15.6967L47.9797 8.146H47.5095H44.9231L43.042 23.9553H45.6284L47.1065 11.5323L52.6823 20.1801L58.2581 11.5323L59.7361 23.9553H62.3225Z" fill="black"/>
</svg>
