<svg width="148" height="148" viewBox="0 0 148 148" fill="none" xmlns="http://www.w3.org/2000/svg">
<rect width="148" height="148" rx="74" fill="#F4EBFA"/>
<path d="M43.3797 64.4741L36.1934 65.6665" stroke="#DD87DA" stroke-width="5.85717" stroke-linecap="round"/>
<path d="M41.5387 64.6542L34.4492 65.8306" stroke="#404040" stroke-width="5.85717" stroke-linecap="round"/>
<path d="M41.3646 55.6037L34.3901 52.6392" stroke="#DD87DA" stroke-width="5.85717" stroke-linecap="round"/>
<path d="M39.549 55.9056L32.6685 52.981" stroke="#404040" stroke-width="5.85717" stroke-linecap="round"/>
<path d="M49.8987 51.6964L44.0366 44.7583" stroke="#DD87DA" stroke-width="5.85717" stroke-linecap="round"/>
<path d="M47.9682 52.0497L42.1851 45.2051" stroke="#404040" stroke-width="5.85717" stroke-linecap="round"/>
<path d="M100.957 107.721C99.8477 112.361 95.1133 115.205 90.3826 114.075L51.8353 104.862C47.1046 103.731 44.1682 99.0532 45.277 94.4139L51.3003 69.2114C52.4091 64.572 57.1436 61.7272 61.8742 62.8578L100.422 72.0706C105.152 73.2012 108.089 77.8793 106.98 82.5187L100.957 107.721Z" fill="#DD87DA"/>
<path d="M88.1486 39.3569C76.4184 36.5534 65.6916 39.548 62.8881 51.2782C62.5509 53.5903 64.1526 55.7377 66.4649 56.0736L66.7613 56.1167C68.4619 56.3638 70.1298 55.4952 70.9024 53.9602C71.0412 53.6844 71.1455 53.3895 71.2285 53.0921C73.0689 46.4949 79.2339 46.2071 86.1181 47.8524C93.1567 49.5346 97.4975 56.6049 95.8158 63.6413L91.755 80.6324C91.1943 82.9784 92.6415 85.3347 94.9875 85.8954C97.3335 86.456 99.6898 85.0088 100.25 82.6628L104.311 65.6717C107.115 53.9415 99.8788 42.1604 88.1486 39.3569Z" fill="#DD87DA"/>
<path d="M85.7727 37.773C74.1678 34.9994 63.5556 37.962 60.7821 49.567C60.4485 51.8543 62.0331 53.9788 64.3206 54.3112L64.6139 54.3538C66.2963 54.5982 67.9464 53.7389 68.7108 52.2204C68.8481 51.9475 68.9513 51.6558 69.0334 51.3615C70.8542 44.8347 76.9532 44.55 83.764 46.1778C90.7274 47.842 95.0218 54.8368 93.3581 61.7981L89.3406 78.6076C88.7859 80.9286 90.2177 83.2597 92.5386 83.8144C94.8596 84.3691 97.1907 82.9373 97.7454 80.6164L101.763 63.8068C104.536 52.2019 97.3777 40.5465 85.7727 37.773Z" fill="#404040"/>
<path d="M97.5949 105.012C96.6085 109.139 92.4626 111.686 88.3355 110.7L50.5139 101.66C46.3869 100.674 43.8404 96.528 44.8268 92.4009L50.853 67.1865C51.8393 63.0594 55.9853 60.513 60.1123 61.4994L97.9339 70.5386C102.061 71.525 104.607 75.6709 103.621 79.798L97.5949 105.012Z" fill="#FBF8FB" stroke="#404040" stroke-width="1.91555"/>
<path d="M84.0694 85.3867C84.0213 85.1178 83.8113 84.9068 83.5426 84.858L75.7816 83.4497L81.8407 75.5411C82.0313 75.2923 82.0195 74.9436 81.8118 74.709C81.7116 74.595 81.5792 74.5238 81.4391 74.4983C81.2893 74.4712 81.13 74.4968 80.991 74.5787L75.5273 77.8079L64.6305 84.2488C64.3955 84.3877 64.2707 84.6584 64.3189 84.9273C64.367 85.1961 64.5762 85.4077 64.8449 85.4564L72.6059 86.8647L66.5468 94.7734C66.3563 95.0222 66.368 95.3709 66.5757 95.6055C66.6759 95.7194 66.8084 95.7907 66.9485 95.8161C67.0982 95.8433 67.2576 95.8177 67.3966 95.7358L72.8602 92.5065L83.757 86.0657C83.9927 85.9268 84.1168 85.656 84.0694 85.3867Z" fill="#DD87DA"/>
<path d="M82.5929 85.1044C82.5447 84.8356 82.3347 84.6245 82.0661 84.5758L74.305 83.1675L80.3642 75.2588C80.5547 75.01 80.5429 74.6613 80.3352 74.4268C80.2351 74.3128 80.1026 74.2415 79.9625 74.2161C79.8127 74.1889 79.6534 74.2146 79.5144 74.2964L74.0508 77.5257L63.154 83.9665C62.9189 84.1055 62.7941 84.3762 62.8423 84.645C62.8904 84.9139 63.0997 85.1254 63.3683 85.1742L71.1294 86.5825L65.0703 94.4911C64.8797 94.74 64.8915 95.0886 65.0992 95.3232C65.1993 95.4372 65.3318 95.5085 65.4719 95.5339C65.6217 95.5611 65.781 95.5354 65.92 95.4536L71.3836 92.2243L82.2805 85.7835C82.5161 85.6446 82.6403 85.3738 82.5929 85.1044Z" fill="#404040"/>
</svg>
