<svg width="251" height="230" viewBox="0 0 251 230" fill="none" xmlns="http://www.w3.org/2000/svg">
<rect x="17.3491" y="25.8862" width="116.964" height="116.964" rx="5.7451" fill="#E4F5FC"/>
<path fill-rule="evenodd" clip-rule="evenodd" d="M7.79024 55.2085C5.40287 55.2085 3.46753 57.1438 3.46753 59.5312V77.9323C3.46753 79.4985 4.30042 80.8701 5.54743 81.6284V88.7697C5.54743 89.2832 6.16825 89.5403 6.53134 89.1772L13.4535 82.2551H47.8286C50.216 82.2551 52.1513 80.3197 52.1513 77.9323V59.5312C52.1513 57.1438 50.216 55.2085 47.8286 55.2085H7.79024Z" fill="#404040"/>
<path fill-rule="evenodd" clip-rule="evenodd" d="M4.87715 54.376C2.48979 54.376 0.554443 56.3113 0.554443 58.6987V76.2676C0.554443 78.6011 2.40342 80.5027 4.71623 80.5874V87.9376C4.71623 88.451 5.33705 88.7082 5.70014 88.3451L13.4549 80.5903H45.7477C48.1351 80.5903 50.0704 78.655 50.0704 76.2676V58.6987C50.0704 56.3113 48.1351 54.376 45.7477 54.376H4.87715Z" fill="#FFBAFC"/>
<path d="M4.71623 80.5874H4.86032V80.4485L4.7215 80.4434L4.71623 80.5874ZM5.70014 88.3451L5.80202 88.447L5.70014 88.3451ZM13.4549 80.5903V80.4462H13.3952L13.353 80.4884L13.4549 80.5903ZM0.698534 58.6987C0.698534 56.3909 2.56936 54.5201 4.87715 54.5201V54.2319C2.41021 54.2319 0.410353 56.2317 0.410353 58.6987H0.698534ZM0.698534 76.2676V58.6987H0.410353V76.2676H0.698534ZM4.7215 80.4434C2.48588 80.3616 0.698534 78.5233 0.698534 76.2676H0.410353C0.410353 78.6789 2.32096 80.6439 4.71096 80.7314L4.7215 80.4434ZM4.86032 87.9376V80.5874H4.57213V87.9376H4.86032ZM5.59825 88.2432C5.32593 88.5155 4.86032 88.3227 4.86032 87.9376H4.57213C4.57213 88.5794 5.34816 88.9009 5.80202 88.447L5.59825 88.2432ZM13.353 80.4884L5.59825 88.2432L5.80202 88.447L13.5568 80.6922L13.353 80.4884ZM45.7477 80.4462H13.4549V80.7344H45.7477V80.4462ZM49.9263 76.2676C49.9263 78.5754 48.0555 80.4462 45.7477 80.4462V80.7344C48.2147 80.7344 50.2145 78.7346 50.2145 76.2676H49.9263ZM49.9263 58.6987V76.2676H50.2145V58.6987H49.9263ZM45.7477 54.5201C48.0555 54.5201 49.9263 56.3909 49.9263 58.6987H50.2145C50.2145 56.2317 48.2147 54.2319 45.7477 54.2319V54.5201ZM4.87715 54.5201H45.7477V54.2319H4.87715V54.5201Z" fill="#404040"/>
<rect x="5.89185" y="59.7856" width="38.2813" height="2.37225" rx="1.18613" fill="#FFF4FF"/>
<rect x="5.89185" y="65.0518" width="31.4324" height="2.37225" rx="1.18613" fill="#FFF4FF"/>
<rect opacity="0.8" x="12.416" y="71.5752" width="9.48901" height="2.37225" rx="1.18613" fill="#FFF4FF"/>
<path d="M10.8323 72.186C10.8094 72.1265 10.7519 72.0875 10.6882 72.0882L8.84787 72.1084L9.88664 70.0288C9.9193 69.9633 9.9012 69.884 9.84325 69.8394C9.81527 69.8177 9.78177 69.8072 9.74855 69.8076C9.71304 69.808 9.67766 69.8209 9.64943 69.8458L8.54035 70.8271L6.32837 72.7842C6.28067 72.8264 6.26403 72.8939 6.28694 72.9534C6.30985 73.0128 6.36714 73.0521 6.43084 73.0514L8.27118 73.0311L7.23242 75.1108C7.19975 75.1762 7.21785 75.2556 7.27581 75.3001C7.30379 75.3218 7.33728 75.3323 7.37051 75.3319C7.40602 75.3315 7.44139 75.3186 7.46962 75.2937L8.57871 74.3125L10.7907 72.3554C10.8385 72.3132 10.855 72.2456 10.8323 72.186Z" fill="#DD87DA"/>
<path d="M10.4809 72.186C10.458 72.1265 10.4006 72.0875 10.3369 72.0882L8.49655 72.1084L9.53532 70.0288C9.56798 69.9633 9.54989 69.884 9.49193 69.8394C9.46395 69.8177 9.43045 69.8072 9.39723 69.8076C9.36172 69.808 9.32634 69.8209 9.29811 69.8458L8.18903 70.8271L5.97705 72.7842C5.92935 72.8264 5.91271 72.8939 5.93562 72.9534C5.95853 73.0128 6.01582 73.0521 6.07953 73.0514L7.91986 73.0311L6.8811 75.1108C6.84844 75.1762 6.86653 75.2556 6.92449 75.3001C6.95247 75.3218 6.98597 75.3323 7.01919 75.3319C7.0547 75.3315 7.09008 75.3186 7.11831 75.2937L8.22739 74.3125L10.4394 72.3554C10.4872 72.3132 10.5037 72.2456 10.4809 72.186Z" fill="white"/>
<path fill-rule="evenodd" clip-rule="evenodd" d="M83.3069 2.39941C86.7096 2.39941 89.468 5.15784 89.468 8.56052V41.7065C89.468 44.3303 87.8279 46.5711 85.5169 47.4594V59.1746C85.5169 59.9065 84.632 60.273 84.1145 59.7555L72.2266 47.8676H17.9834C14.5808 47.8676 11.8223 45.1092 11.8223 41.7065V8.56052C11.8223 5.15783 14.5808 2.39941 17.9834 2.39941H83.3069Z" fill="#404040"/>
<path fill-rule="evenodd" clip-rule="evenodd" d="M87.5034 1C90.9061 1 93.6646 3.75841 93.6646 7.1611V38.9081C93.6646 42.3108 90.9061 45.0692 87.5035 45.0692H86.915V57.7756C86.915 58.5074 86.0301 58.874 85.5126 58.3565L72.2254 45.0692H21.4805C18.0778 45.0692 15.3194 42.3108 15.3194 38.9081V7.1611C15.3194 3.75842 18.0778 1 21.4805 1H87.5034Z" fill="white"/>
<path d="M86.915 45.0692H86.7096V44.8638H86.915V45.0692ZM85.5126 58.3565L85.6579 58.2112L85.5126 58.3565ZM72.2254 45.0692V44.8638H72.3104L72.3706 44.924L72.2254 45.0692ZM93.4592 7.1611C93.4592 3.87184 90.7927 1.20537 87.5034 1.20537V0.79463C91.0196 0.79463 93.8699 3.64499 93.8699 7.1611H93.4592ZM93.4592 38.9081V7.1611H93.8699V38.9081H93.4592ZM87.5035 44.8638C90.7927 44.8638 93.4592 42.1973 93.4592 38.9081H93.8699C93.8699 42.4242 91.0196 45.2745 87.5035 45.2745V44.8638ZM86.915 44.8638H87.5035V45.2745H86.915V44.8638ZM86.7096 57.7756V45.0692H87.1204V57.7756H86.7096ZM85.6579 58.2112C86.046 58.5994 86.7096 58.3245 86.7096 57.7756H87.1204C87.1204 58.6904 86.0143 59.1486 85.3674 58.5017L85.6579 58.2112ZM72.3706 44.924L85.6579 58.2112L85.3674 58.5017L72.0801 45.2144L72.3706 44.924ZM21.4805 44.8638H72.2254V45.2745H21.4805V44.8638ZM15.5247 38.9081C15.5247 42.1973 18.1912 44.8638 21.4805 44.8638V45.2745C17.9644 45.2745 15.114 42.4242 15.114 38.9081H15.5247ZM15.5247 7.1611V38.9081H15.114V7.1611H15.5247ZM21.4805 1.20537C18.1912 1.20537 15.5247 3.87184 15.5247 7.1611H15.114C15.114 3.645 17.9644 0.79463 21.4805 0.79463V1.20537ZM87.5034 1.20537H21.4805V0.79463H87.5034V1.20537Z" fill="#404040"/>
<rect opacity="0.5" width="37.7736" height="3.49755" rx="1.74878" transform="matrix(-1 0 0 1 88.0674 12.1924)" fill="#FFBAFC"/>
<rect opacity="0.5" width="37.7736" height="3.49755" rx="1.74878" transform="matrix(-1 0 0 1 88.0674 18.4878)" fill="#FFBAFC"/>
<rect opacity="0.5" width="20.9853" height="3.49755" rx="1.74878" transform="matrix(-1 0 0 1 71.2803 28.2808)" fill="#FFBAFC"/>
<circle cx="31.5323" cy="22.108" r="12.7139" fill="#404040"/>
<circle cx="32.7218" cy="20.9547" r="11.921" fill="#ED9DEA" stroke="#404040" stroke-width="0.677721"/>
<circle cx="32.7227" cy="20.9539" r="9.53544" fill="white"/>
<circle cx="32.7214" cy="20.9545" r="7.71916" fill="#FFE5FE"/>
<path d="M35.1763 25.6307C35.0619 25.6307 34.9479 25.5957 34.8498 25.5258L32.545 23.8726L30.2401 25.5258C30.0435 25.6666 29.7802 25.6666 29.5849 25.5235C29.3897 25.3819 29.3075 25.1312 29.3806 24.9019L30.2406 22.1276L27.9562 20.5179C27.7618 20.3749 27.6815 20.1233 27.7555 19.8936C27.8304 19.6647 28.0433 19.509 28.2845 19.5071L31.0756 19.5017L32.0142 16.7968C32.0905 16.568 32.3043 16.4136 32.5454 16.4136C32.7865 16.4136 33.0004 16.568 33.0767 16.7968L33.924 19.5017L36.806 19.5071C37.0475 19.509 37.2609 19.6647 37.3349 19.8936C37.4094 20.1233 37.3286 20.3749 37.1342 20.5179L34.8498 22.1276L35.7094 24.9019C35.7829 25.1312 35.6998 25.3823 35.5055 25.5235C35.407 25.5953 35.2916 25.6307 35.1763 25.6307Z" fill="#DD87DA"/>
<rect x="189.89" y="44.9648" width="60.5556" height="60.5556" rx="5.7451" fill="#F9E1C8"/>
<path d="M208.189 68.7653L205.374 69.2324" stroke="#DD87DA" stroke-width="1.44723" stroke-linecap="round"/>
<path d="M207.468 68.8361L204.691 69.2969" stroke="#404040" stroke-width="1.44723" stroke-linecap="round"/>
<path d="M207.401 65.2907L204.669 64.1294" stroke="#DD87DA" stroke-width="1.44723" stroke-linecap="round"/>
<path d="M206.689 65.4088L203.994 64.2632" stroke="#404040" stroke-width="1.44723" stroke-linecap="round"/>
<path d="M210.744 63.7603L208.447 61.0425" stroke="#DD87DA" stroke-width="1.44723" stroke-linecap="round"/>
<path d="M209.987 63.8985L207.721 61.2173" stroke="#404040" stroke-width="1.44723" stroke-linecap="round"/>
<path d="M230.744 85.7066C230.31 87.5239 228.455 88.6383 226.602 88.1954L211.502 84.5866C209.649 84.1437 208.499 82.3111 208.933 80.4938L211.293 70.6214C211.727 68.804 213.582 67.6896 215.435 68.1325L230.535 71.7414C232.388 72.1843 233.538 74.0168 233.104 75.8342L230.744 85.7066Z" fill="#DD87DA"/>
<path d="M225.727 58.9267C221.132 57.8285 216.93 59.0016 215.832 63.5966C215.7 64.5023 216.327 65.3434 217.233 65.475L217.349 65.4919C218.015 65.5887 218.669 65.2485 218.971 64.6472C219.026 64.5392 219.067 64.4236 219.099 64.3071C219.82 61.7228 222.235 61.6101 224.932 62.2546C227.689 62.9136 229.389 65.6832 228.73 68.4395L227.14 75.0953C226.92 76.0143 227.487 76.9373 228.406 77.1569C229.325 77.3766 230.248 76.8096 230.468 75.8907L232.058 69.2349C233.157 64.6399 230.322 60.0249 225.727 58.9267Z" fill="#DD87DA"/>
<path d="M224.797 58.3059C220.251 57.2194 216.094 58.38 215.007 62.9259C214.876 63.8219 215.497 64.6541 216.393 64.7843L216.508 64.801C217.167 64.8967 217.814 64.5601 218.113 63.9653C218.167 63.8584 218.207 63.7441 218.239 63.6288C218.953 61.0721 221.342 60.9606 224.01 61.5983C226.737 62.2502 228.42 64.9902 227.768 67.7171L226.194 74.3018C225.977 75.211 226.538 76.1241 227.447 76.3414C228.356 76.5587 229.269 75.9978 229.487 75.0887L231.06 68.504C232.147 63.958 229.342 59.3924 224.797 58.3059Z" fill="#404040"/>
<path d="M229.561 84.6773C229.157 86.3684 227.458 87.4118 225.767 87.0077L210.951 83.4667C209.26 83.0626 208.217 81.3638 208.621 79.6727L210.982 69.7956C211.386 68.1045 213.085 67.0611 214.776 67.4653L229.591 71.0062C231.282 71.4104 232.326 73.1092 231.922 74.8002L229.561 84.6773Z" fill="#FBF8FB" stroke="#404040" stroke-width="0.473309"/>
<path d="M224.129 76.9576C224.11 76.8523 224.028 76.7696 223.923 76.7505L220.883 76.1989L223.256 73.1008C223.331 73.0034 223.326 72.8668 223.245 72.7749C223.206 72.7302 223.154 72.7023 223.099 72.6924C223.04 72.6817 222.978 72.6918 222.923 72.7238L220.783 73.9888L216.515 76.5118C216.423 76.5663 216.374 76.6723 216.392 76.7776C216.411 76.8829 216.493 76.9658 216.599 76.9849L219.639 77.5366L217.265 80.6346C217.191 80.7321 217.195 80.8686 217.277 80.9605C217.316 81.0052 217.368 81.0331 217.423 81.0431C217.481 81.0537 217.544 81.0437 217.598 81.0116L219.738 79.7466L224.007 77.2236C224.099 77.1692 224.148 77.0631 224.129 76.9576Z" fill="#DD87DA"/>
<path d="M223.55 76.8467C223.531 76.7414 223.449 76.6588 223.344 76.6397L220.304 76.088L222.677 72.99C222.752 72.8925 222.747 72.7559 222.666 72.664C222.627 72.6194 222.575 72.5915 222.52 72.5815C222.461 72.5709 222.399 72.5809 222.344 72.613L220.204 73.878L215.935 76.401C215.843 76.4554 215.795 76.5615 215.813 76.6668C215.832 76.7721 215.914 76.855 216.019 76.8741L219.06 77.4257L216.686 80.5238C216.611 80.6212 216.616 80.7578 216.697 80.8497C216.737 80.8943 216.789 80.9223 216.843 80.9322C216.902 80.9429 216.965 80.9328 217.019 80.9007L219.159 79.6358L223.428 77.1127C223.52 77.0583 223.569 76.9523 223.55 76.8467Z" fill="#404040"/>
<rect x="74.8093" y="80.8577" width="126.472" height="126.472" rx="7.18138" fill="#FFD7FD" stroke="white" stroke-width="2.87255" stroke-linejoin="round"/>
<path d="M133.648 76.7224C109.994 103.609 103.843 143.277 97.8283 166.568C97.2257 168.901 96.8889 171.285 96.8889 173.695V174.59C96.8889 177.676 97.3574 180.78 98.708 183.555C105.933 198.399 118.339 201.553 127.276 200.943C131.535 200.652 135.246 198.201 138.036 194.97C158.454 171.323 176.113 132.279 183.593 112.516C184.239 110.809 184.697 109.05 184.855 107.231C186.074 93.2042 181.871 77.0771 178.938 68.8445C178.454 67.4865 178.091 66.0901 177.563 64.7489C175.686 59.9884 171.528 58.4823 168.392 58.2692C166.91 58.1685 165.449 58.5573 164.047 59.0496C149.227 64.2541 137.698 72.8958 133.648 76.7224Z" fill="#ED9DEA"/>
<path d="M85.9483 200.03C84.5606 187.348 89.1193 177.903 92.2118 173.901C92.5761 173.429 93.2827 173.484 93.6353 173.964C106.106 190.947 123.857 191.6 132.154 189.614C132.665 189.492 133.191 189.795 133.243 190.319C133.798 195.848 128.354 203.928 125.397 207.452C114.04 220.926 113.737 214.631 115.061 209.515C115.118 209.294 115.095 209.006 114.867 208.999C113.42 208.959 107.776 215.225 104.907 218.645C92.6127 234.487 90.1083 228.69 90.3929 223.811V200.488C90.3929 199.765 89.6029 199.319 88.9844 199.694L87.3256 200.697C86.7561 201.042 86.0207 200.692 85.9483 200.03Z" fill="white" stroke="#404040" stroke-width="1.03963"/>
<path d="M94.2249 193.075C93.3994 186.401 96.5598 181.411 98.7862 179.201C99.1341 178.856 99.6911 178.898 100.036 179.246C109.135 188.417 121.992 188.83 128.123 187.77C128.59 187.689 129.06 187.957 129.081 188.43C129.208 191.457 125.39 195.682 123.286 197.558C115.188 204.744 114.733 201.706 115.6 198.95C115.689 198.668 115.603 198.366 115.317 198.442C113.985 198.797 110.202 201.946 108.219 203.714C99.1792 212.427 97.3377 209.239 97.547 206.555V194.261C97.547 193.586 96.8506 193.137 96.2363 193.415L95.4826 193.756C94.935 194.004 94.2986 193.672 94.2249 193.075Z" fill="#DD87DA"/>
<path d="M129.786 74.3301C106.381 100.927 100.285 140.159 94.333 163.216C93.7304 165.55 93.3933 167.935 93.3933 170.346V171.144C93.3933 174.231 93.8509 177.344 95.2481 180.096C102.687 194.751 116.484 197.144 125.912 196.211C130.16 195.79 133.872 193.383 136.646 190.14C156.554 166.869 172.002 129.257 179.233 109.788C179.869 108.076 180.33 106.316 180.487 104.497C181.684 90.6327 177.535 74.7034 174.633 66.5544C174.149 65.196 173.787 63.7984 173.256 62.458C171.398 57.774 167.304 56.2837 164.206 56.0678C162.724 55.9645 161.264 56.3535 159.863 56.8459C145.2 61.9977 133.794 70.5445 129.786 74.3301Z" fill="#FBF8FB" stroke="#404040" stroke-width="1.38618"/>
<path d="M179.471 107.226C146.997 122.903 128.614 97.4278 123.482 82.7307C126.281 76.0129 136.313 68.733 140.978 65.9329C159.455 54.1752 166.407 54.9692 167.573 56.8359C172.612 56.276 176.205 69.2001 177.371 75.7321C181.85 95.8881 180.637 105.126 179.471 107.226Z" fill="#404040"/>
<circle cx="132.192" cy="134.235" r="18.2463" stroke="#404040" stroke-width="1.03963"/>
<circle cx="131.885" cy="133.822" r="9.79806" fill="#DD87DA"/>
<path d="M131.975 81.1734C137.282 72.0589 149.099 66.5901 157.773 63.9736C158.438 63.773 158.655 64.3078 158.068 64.6786C150.304 69.5784 140.514 81.3357 135.55 88.1017C135.443 88.2481 135.274 88.3362 135.096 88.3031C133.109 87.9344 132.158 83.7874 131.903 81.5105C131.89 81.393 131.916 81.2756 131.975 81.1734Z" fill="white"/>
<path d="M104.371 163.277L108.971 137.118C109.115 136.301 108.352 135.615 107.557 135.849C76.4904 144.961 69.4103 174.049 69.7955 187.687C70.731 174.499 92.1757 166.655 103.486 164.198C103.943 164.099 104.29 163.737 104.371 163.277Z" fill="#404040"/>
<path d="M130.573 174.458L145.781 154.129C146.278 153.466 147.3 153.552 147.676 154.29C162.552 183.46 146.916 207.631 137.048 216.19C145.696 206.934 136.523 185.785 130.507 175.731C130.268 175.331 130.294 174.831 130.573 174.458Z" fill="#404040"/>
<path d="M95.4927 156.919C99.9251 166.484 105.991 190.513 140.984 182.814" stroke="#404040" stroke-width="1.38618"/>
<path d="M91.7761 90.3207C90.1277 84.6815 84.2764 81.463 78.7078 83.1318C75.3272 84.1448 72.8381 86.7285 71.7627 89.8596C69.1775 87.8254 65.7005 87.0297 62.3209 88.0424C56.7513 89.7115 53.5723 95.6348 55.2211 101.275C55.4546 102.074 55.7809 102.818 56.1707 103.512C60.1457 111.901 72.5348 118.296 80.2136 118.77C86.3996 114.141 93.3569 101.949 92.1804 92.7226C92.136 91.9245 92.0099 91.1205 91.7761 90.3207Z" fill="#DD87DA"/>
<path d="M88.2957 86.8407C86.6472 81.2015 80.796 77.9831 75.2274 79.6518C71.8468 80.6649 69.3576 83.2485 68.2823 86.3796C65.697 84.3455 62.22 83.5497 58.8404 84.5624C53.2708 86.2315 50.0918 92.1548 51.7406 97.7951C51.9741 98.5939 52.3005 99.3379 52.6902 100.032C56.6652 108.422 69.0544 114.816 76.7331 115.29C82.9191 110.661 89.8765 98.4691 88.6999 89.2426C88.6556 88.4445 88.5295 87.6406 88.2957 86.8407Z" fill="#404040"/>
<path d="M215.419 159.828C215.228 159.331 214.747 159.004 214.215 159.01L198.83 159.18L207.514 141.794C207.787 141.247 207.636 140.584 207.151 140.211C206.917 140.03 206.637 139.942 206.359 139.946C206.063 139.949 205.767 140.057 205.531 140.265L196.259 148.468L177.768 164.829C177.369 165.182 177.23 165.746 177.421 166.243C177.613 166.74 178.092 167.068 178.624 167.063L194.009 166.893L185.325 184.279C185.052 184.825 185.204 185.489 185.688 185.862C185.922 186.043 186.202 186.13 186.48 186.127C186.777 186.124 187.072 186.016 187.308 185.808L196.58 177.605L215.072 161.244C215.472 160.891 215.609 160.327 215.419 159.828Z" fill="#DD87DA"/>
<path d="M212.485 159.828C212.293 159.331 211.813 159.004 211.281 159.01L195.896 159.18L204.58 141.794C204.853 141.247 204.701 140.584 204.217 140.211C203.983 140.03 203.703 139.942 203.425 139.946C203.128 139.949 202.833 140.057 202.597 140.265L193.325 148.468L174.833 164.829C174.435 165.182 174.296 165.746 174.487 166.243C174.679 166.74 175.157 167.068 175.69 167.063L191.075 166.893L182.391 184.279C182.118 184.825 182.269 185.489 182.754 185.862C182.988 186.043 183.268 186.13 183.545 186.127C183.842 186.124 184.138 186.016 184.374 185.808L193.646 177.605L212.137 161.244C212.537 160.891 212.675 160.327 212.485 159.828Z" fill="#404040"/>
</svg>
