<svg width="24" height="24" viewBox="0 0 24 24" fill="none" xmlns="http://www.w3.org/2000/svg">
<path d="M11 7.00006L11.5 6.00004L12.5 5.50003L11.5 5.00002L11 4L10.5 5.00002L9.5 5.50003L10.5 6.00004L11 7.00006ZM6.5 9.0001L7.33313 7.3335L9 6.50005L7.33313 5.6666L6.5 4L5.66688 5.6666L4 6.50005L5.66688 7.3335L6.5 9.0001ZM17.5 13.0002L16.6669 14.6668L15 15.5002L16.6669 16.3337L17.5 18.0003L18.3331 16.3337L20 15.5002L18.3331 14.6668L17.5 13.0002ZM19.7069 6.94475L17.0553 4.29313C16.8603 4.0975 16.6044 4 16.3484 4C16.0925 4 15.8366 4.0975 15.6412 4.29313L4.29313 15.6415C3.9025 16.0321 3.9025 16.6652 4.29313 17.0556L6.94469 19.7072C7.14 19.9025 7.39594 20 7.65156 20C7.9075 20 8.16344 19.9025 8.35875 19.7072L19.7069 8.35852C20.0975 7.96852 20.0975 7.33507 19.7069 6.94475ZM15.2328 10.3582L13.6419 8.76728L16.3481 6.06098L17.9391 7.65195L15.2328 10.3582Z" fill="currentColor"/>
</svg>
