<svg width="24" height="24" viewBox="0 0 24 24" fill="none" xmlns="http://www.w3.org/2000/svg">
<path d="M12 2C6.47581 2 2 6.47581 2 12C2 17.5242 6.47581 22 12 22C17.5242 22 22 17.5242 22 12C22 6.47581 17.5242 2 12 2ZM16.9113 8.85081L15.2702 16.5847C15.1492 17.1331 14.8226 17.2661 14.3669 17.0081L11.8669 15.1653L10.6613 16.3266C10.5282 16.4597 10.4153 16.5726 10.1573 16.5726L10.3347 14.0282L14.9677 9.84274C15.1694 9.66532 14.9234 9.56452 14.6573 9.74194L8.93145 13.3468L6.46371 12.5766C5.92742 12.4073 5.91532 12.0403 6.57661 11.7823L16.2177 8.06452C16.6653 7.90323 17.0565 8.17339 16.9113 8.85081Z" fill="#867F9B"/>
</svg>
