<svg width="149" height="148" viewBox="0 0 149 148" fill="none" xmlns="http://www.w3.org/2000/svg">
<rect x="0.5" width="148" height="148" rx="74" fill="#F4EBFA"/>
<rect width="83.9532" height="67.5088" transform="translate(29.9268 45.8716)" fill="#404040"/>
<g clip-path="url(#clip0_197_4114)">
<g filter="url(#filter0_bd_197_4114)">
<rect x="34.2544" y="53.0864" width="85.7745" height="56.5546" fill="white"/>
</g>
<rect x="34.4427" y="39.1361" width="85.3979" height="13.762" fill="#FFBAFC" stroke="#404040" stroke-width="0.376667"/>
<path d="M95.9697 45.751H91.3765" stroke="white" stroke-width="0.94484" stroke-linecap="round"/>
<mask id="path-7-inside-1_197_4114" fill="white">
<rect x="100.146" y="43.2446" width="5.01078" height="5.01078" rx="0.417565"/>
</mask>
<rect x="100.146" y="43.2446" width="5.01078" height="5.01078" rx="0.417565" stroke="white" stroke-width="1.88968" stroke-linecap="round" mask="url(#path-7-inside-1_197_4114)"/>
<path d="M110.168 44.0796L113.508 47.4201" stroke="white" stroke-width="0.94484" stroke-linecap="round"/>
<path d="M113.509 44.0796L110.169 47.4201" stroke="white" stroke-width="0.94484" stroke-linecap="round"/>
</g>
<rect x="34.49" y="39.1834" width="85.3033" height="70.222" stroke="#404040" stroke-width="0.471289"/>
<circle cx="66.0723" cy="53.6827" r="4.53278" fill="#404040"/>
<circle cx="65.5689" cy="53.6827" r="4.46273" fill="#FFF4FF" stroke="#404040" stroke-width="0.140106"/>
<circle cx="65.5681" cy="53.6823" r="3.28757" fill="#ED9DEA" stroke="#404040" stroke-width="0.140106"/>
<path d="M67.224 53.137C67.2892 52.6525 66.9216 52.3996 66.4177 52.2286L66.5742 51.5732L66.1759 51.477L66.0241 52.1182C65.9186 52.0933 65.8119 52.0683 65.7063 52.0469L65.8581 51.4057L65.455 51.3096L65.2985 51.965C65.2131 51.9448 65.1266 51.9294 65.0412 51.9092L64.4922 51.7774L64.3914 52.2013C64.3914 52.2013 64.689 52.2666 64.6784 52.2726C64.8396 52.3129 64.8704 52.4186 64.8645 52.4993L64.6879 53.2462C64.6985 53.251 64.7128 53.251 64.7282 53.2617C64.7128 53.2569 64.7033 53.2569 64.6879 53.2522L64.446 54.2971C64.4258 54.3469 64.3748 54.4182 64.2646 54.3933C64.2693 54.398 63.9717 54.322 63.9717 54.322L63.7832 54.7815L64.3025 54.9027C64.3986 54.9276 64.4946 54.9478 64.5847 54.9739L64.4282 55.6353L64.8266 55.7315L64.9831 55.076C65.0945 55.1057 65.2001 55.1318 65.3008 55.1568L65.1443 55.8075L65.5427 55.9036L65.6992 55.2422C66.3798 55.3634 66.8884 55.3076 67.0947 54.6865C67.2607 54.1914 67.0793 53.9088 66.7165 53.7224C66.9821 53.6618 67.1742 53.4896 67.224 53.137ZM66.3276 54.4229C66.2114 54.9181 65.3755 54.6604 65.1076 54.5951L65.3139 53.7164C65.5866 53.7829 66.4486 53.904 66.3276 54.4229ZM66.4379 53.137C66.3324 53.5858 65.6364 53.3697 65.4099 53.3139L65.602 52.5172C65.8237 52.5718 66.5493 52.668 66.4379 53.137Z" fill="#404040"/>
<circle cx="92.9489" cy="31.0905" r="4.48654" fill="#404040"/>
<circle cx="92.4504" cy="31.0905" r="4.37919" fill="#FFF4FF" stroke="#404040" stroke-width="0.21471"/>
<circle cx="92.4498" cy="31.0905" r="3.21601" fill="#ED9DEA" stroke="#404040" stroke-width="0.21471"/>
<path d="M94.0888 30.5505C94.1533 30.071 93.7895 29.8206 93.2908 29.6514L93.4457 29.0026L93.0514 28.9074L92.9011 29.5421C92.7967 29.5174 92.6911 29.4927 92.5866 29.4716L92.7368 28.8369L92.3378 28.7417L92.1829 29.3905C92.0984 29.3705 92.0127 29.3552 91.9283 29.3352L91.3849 29.2048L91.2851 29.6243C91.2851 29.6243 91.5797 29.689 91.5691 29.6949C91.7287 29.7348 91.7593 29.8394 91.7534 29.9193L91.5785 30.6586C91.5891 30.6633 91.6032 30.6633 91.6184 30.6739C91.6032 30.6692 91.5938 30.6692 91.5785 30.6645L91.3391 31.6987C91.3192 31.7481 91.2687 31.8186 91.1596 31.7939C91.1643 31.7986 90.8697 31.7234 90.8697 31.7234L90.6831 32.1782L91.1971 32.2981C91.2922 32.3228 91.3872 32.3428 91.4764 32.3686L91.3215 33.0233L91.7158 33.1185L91.8707 32.4697C91.9811 32.4991 92.0855 32.525 92.1853 32.5496L92.0304 33.1937L92.4247 33.2889L92.5796 32.6343C93.2532 32.7541 93.7567 32.6989 93.9609 32.0842C94.1252 31.5941 93.9456 31.3144 93.5865 31.1299C93.8494 31.0699 94.0395 30.8995 94.0888 30.5505ZM93.2016 31.8233C93.0866 32.3134 92.2592 32.0584 91.994 31.9937L92.1982 31.124C92.4681 31.1898 93.3213 31.3097 93.2016 31.8233ZM93.3107 30.5505C93.2063 30.9947 92.5174 30.7808 92.2932 30.7256L92.4833 29.937C92.7028 29.991 93.421 30.0862 93.3107 30.5505Z" fill="#404040"/>
<circle cx="77.3763" cy="79.8572" r="14.9475" fill="#FFE5FE"/>
<circle cx="77.3763" cy="79.8577" r="7.9134" fill="#FFBAFC"/>
<path d="M83.5009 74.1856C83.9364 73.409 83.664 72.4344 82.8927 72.0087C82.4244 71.7503 81.8808 71.755 81.4278 71.9708C81.3737 71.4752 81.091 71.0145 80.6229 70.7562C79.8514 70.3305 78.8732 70.6148 78.4376 71.3915C78.376 71.5015 78.3301 71.6158 78.2963 71.7316C77.81 73.0517 78.4322 75.0708 79.1955 75.9522C80.3527 76.1306 82.4101 75.5903 83.2839 74.4842C83.3655 74.3947 83.4392 74.2958 83.5009 74.1856Z" fill="#DD87DA"/>
<path d="M83.5092 73.44C83.9447 72.6634 83.6723 71.6888 82.901 71.2631C82.4327 71.0047 81.8891 71.0094 81.4361 71.2252C81.382 70.7296 81.0993 70.2689 80.6312 70.0106C79.8597 69.5849 78.8815 69.8692 78.4459 70.6459C78.3843 70.7559 78.3384 70.8702 78.3046 70.986C77.8183 72.3061 78.4405 74.3252 79.2038 75.2065C80.361 75.385 82.4184 74.8447 83.2922 73.7386C83.3738 73.6491 83.4475 73.5502 83.5092 73.44Z" fill="#404040"/>
<path d="M85.4028 24.4034C85.8382 23.6268 85.5658 22.6521 84.7945 22.2265C84.3263 21.9681 83.7826 21.9728 83.3297 22.1886C83.2756 21.693 82.9929 21.2323 82.5248 20.974C81.7533 20.5482 80.775 20.8325 80.3395 21.6093C80.2778 21.7193 80.2319 21.8335 80.1981 21.9494C79.7119 23.2695 80.3341 25.2886 81.0973 26.1699C82.2545 26.3484 84.312 25.808 85.1857 24.702C85.2674 24.6125 85.341 24.5136 85.4028 24.4034Z" fill="#404040"/>
<path d="M70.8517 36.1038C70.6655 34.1394 68.9397 32.707 66.9973 32.9044C65.8181 33.0243 64.8333 33.7186 64.2802 34.6831C63.5565 33.8484 62.4601 33.3655 61.2813 33.4853C59.3386 33.6827 57.9146 35.4348 58.1009 37.3996C58.1272 37.6779 58.1877 37.9439 58.2722 38.1977C59.0515 41.2166 62.7323 44.1108 65.2349 44.7539C67.5685 43.6193 70.636 40.0393 70.8328 36.9216C70.8688 36.6556 70.8781 36.3824 70.8517 36.1038Z" fill="#DD87DA"/>
<path d="M69.9269 34.7342C69.7407 32.7698 68.0149 31.3374 66.0725 31.5348C64.8933 31.6546 63.9085 32.349 63.3554 33.3135C62.6317 32.4787 61.5353 31.9959 60.3565 32.1157C58.4137 32.3131 56.9898 34.0652 57.176 36.03C57.2024 36.3083 57.2629 36.5743 57.3474 36.8281C58.1267 39.8469 61.8075 42.7412 64.3101 43.3843C66.6437 42.2497 69.7112 38.6697 69.908 35.552C69.944 35.286 69.9533 35.0128 69.9269 34.7342Z" fill="#404040"/>
<path d="M92.6158 54.0089C93.9472 51.97 93.3836 49.2602 91.3573 47.9565C90.1272 47.1651 88.6428 47.0776 87.3671 47.5829C87.3109 46.2207 86.6243 44.9114 85.3946 44.1202C83.368 42.8163 80.6461 43.4117 79.3145 45.451C79.1259 45.7398 78.9796 46.0431 78.8659 46.353C77.2957 49.8656 78.6214 55.49 80.5417 58.0356C83.6664 58.7358 89.3804 57.6407 91.9685 54.7835C92.2078 54.5545 92.427 54.2981 92.6158 54.0089Z" fill="#DD87DA"/>
<path d="M92.7769 51.9757C94.1083 49.9368 93.5447 47.227 91.5185 45.9233C90.2884 45.1319 88.804 45.0444 87.5282 45.5497C87.472 44.1875 86.7855 42.8782 85.5557 42.087C83.5291 40.7831 80.8072 41.3785 79.4756 43.4178C79.287 43.7066 79.1407 44.0099 79.027 44.3198C77.4569 47.8324 78.7825 53.4568 80.7028 56.0024C83.8275 56.7026 89.5415 55.6075 92.1296 52.7503C92.3689 52.5213 92.5881 52.2649 92.7769 51.9757Z" fill="#404040"/>
<path d="M57.2063 51.3852C57.1507 50.7981 56.6349 50.3701 56.0544 50.429C55.702 50.4649 55.4077 50.6724 55.2424 50.9606C55.0261 50.7111 54.6985 50.5668 54.3462 50.6026C53.7656 50.6616 53.34 51.1853 53.3957 51.7724C53.4036 51.8556 53.4216 51.9351 53.4469 52.011C53.6798 52.9131 54.7798 53.7781 55.5277 53.9703C56.2251 53.6312 57.1418 52.5613 57.2006 51.6296C57.2114 51.5501 57.2142 51.4685 57.2063 51.3852Z" fill="#404040"/>
<path d="M72.6985 66.1062C72.2279 64.5357 70.589 63.6486 69.0383 64.1248C68.0969 64.4138 67.4071 65.1394 67.113 66.0152C66.3877 65.4524 65.416 65.2369 64.4749 65.5259C62.9238 66.0021 62.0479 67.661 62.5186 69.2318C62.5853 69.4542 62.6777 69.6612 62.7878 69.8543C63.9128 72.1877 67.382 73.9487 69.5256 74.0665C71.243 72.7632 73.1615 69.348 72.8158 66.7757C72.8019 66.553 72.7652 66.3289 72.6985 66.1062Z" fill="#DD87DA"/>
<path d="M71.7224 65.1408C71.2518 63.5703 69.613 62.6833 68.0622 63.1594C67.1208 63.4485 66.4311 64.1741 66.1369 65.0499C65.4117 64.4871 64.4399 64.2716 63.4988 64.5606C61.9478 65.0368 61.0718 66.6957 61.5425 68.2665C61.6092 68.4889 61.7017 68.6959 61.8117 68.889C62.9367 71.2224 66.4059 72.9834 68.5495 73.1012C70.267 71.7979 72.1854 68.3827 71.8397 65.8103C71.8258 65.5877 71.7891 65.3636 71.7224 65.1408Z" fill="#404040"/>
<path d="M77.3303 80.9552L107.669 107.216C108.044 107.54 107.874 108.153 107.386 108.239L97.2414 110.016C96.8592 110.083 96.6458 110.496 96.812 110.846L104.386 126.828C104.53 127.132 104.39 127.494 104.079 127.622L97.0021 130.536C96.7119 130.656 96.3791 130.526 96.2462 130.242L88.9317 114.592C88.7636 114.232 88.2946 114.139 88.0021 114.408L80.0125 121.744C79.6494 122.077 79.0619 121.842 79.029 121.35L76.3597 81.4386C76.3249 80.9179 76.9357 80.6137 77.3303 80.9552Z" fill="#404040"/>
<path d="M79.1106 78.2472L109.449 104.508C109.824 104.832 109.654 105.445 109.166 105.531L99.0217 107.308C98.6395 107.375 98.426 107.788 98.5922 108.138L106.167 124.12C106.311 124.424 106.17 124.786 105.859 124.914L98.7824 127.828C98.4922 127.948 98.1594 127.818 98.0265 127.534L90.7119 111.884C90.5438 111.524 90.0748 111.431 89.7824 111.7L81.7928 119.036C81.4297 119.369 80.8422 119.134 80.8093 118.642L78.14 78.7306C78.1052 78.2099 78.716 77.9057 79.1106 78.2472Z" fill="#ED9DEA" stroke="#404040" stroke-width="0.67702"/>
<circle cx="89.5493" cy="67.0761" r="3.02924" fill="#404040"/>
<circle cx="89.2133" cy="67.0761" r="2.98242" fill="#FFF4FF" stroke="#404040" stroke-width="0.0936322"/>
<circle cx="89.2126" cy="67.0759" r="2.19707" fill="#ED9DEA" stroke="#404040" stroke-width="0.0936322"/>
<path d="M90.3195 66.711C90.3631 66.3872 90.1174 66.2182 89.7807 66.1039L89.8853 65.6659L89.619 65.6016L89.5176 66.0301C89.4471 66.0135 89.3758 65.9968 89.3052 65.9825L89.4067 65.554L89.1373 65.4897L89.0327 65.9278C88.9756 65.9143 88.9178 65.904 88.8607 65.8905L88.4939 65.8024L88.4265 66.0857C88.4265 66.0857 88.6254 66.1293 88.6183 66.1333C88.726 66.1603 88.7466 66.2309 88.7427 66.2849L88.6246 66.784C88.6317 66.7872 88.6412 66.7872 88.6515 66.7943C88.6412 66.7911 88.6349 66.7911 88.6246 66.788L88.463 67.4863C88.4495 67.5196 88.4154 67.5672 88.3417 67.5506C88.3449 67.5537 88.146 67.5029 88.146 67.5029L88.02 67.81L88.3671 67.891C88.4313 67.9076 88.4954 67.9211 88.5557 67.9386L88.4511 68.3806L88.7173 68.4449L88.8219 68.0068C88.8964 68.0267 88.9669 68.0441 89.0343 68.0608L88.9297 68.4957L89.1959 68.5599L89.3005 68.1179C89.7553 68.1989 90.0952 68.1616 90.2331 67.7466C90.344 67.4157 90.2228 67.2268 89.9803 67.1022C90.1578 67.0617 90.2862 66.9467 90.3195 66.711ZM89.7204 67.5704C89.6428 67.9013 89.0842 67.7291 88.9051 67.6855L89.043 67.0982C89.2252 67.1427 89.8013 67.2236 89.7204 67.5704ZM89.7941 66.711C89.7236 67.011 89.2585 66.8665 89.1071 66.8292L89.2355 66.2968C89.3837 66.3333 89.8686 66.3976 89.7941 66.711Z" fill="#404040"/>
<circle cx="66.9997" cy="17.7428" r="2.16374" fill="#404040"/>
<circle cx="66.7585" cy="17.7428" r="2.1303" fill="#FFF4FF" stroke="#404040" stroke-width="0.0668801"/>
<circle cx="66.759" cy="17.7429" r="1.56933" fill="#ED9DEA" stroke="#404040" stroke-width="0.0668801"/>
<path d="M67.5492 17.4817C67.5803 17.2504 67.4049 17.1297 67.1643 17.0481L67.239 16.7352L67.0489 16.6893L66.9764 16.9954C66.9261 16.9835 66.8751 16.9716 66.8248 16.9614L66.8972 16.6553L66.7048 16.6094L66.6301 16.9223C66.5893 16.9126 66.548 16.9053 66.5072 16.8956L66.2452 16.8327L66.1971 17.0351C66.1971 17.0351 66.3391 17.0662 66.3341 17.0691C66.411 17.0883 66.4257 17.1388 66.4229 17.1773L66.3386 17.5338C66.3437 17.5361 66.3505 17.5361 66.3578 17.5412C66.3505 17.5389 66.3459 17.5389 66.3386 17.5367L66.2231 18.0355C66.2135 18.0593 66.1892 18.0933 66.1365 18.0814C66.1388 18.0837 65.9967 18.0474 65.9967 18.0474L65.9067 18.2667L66.1546 18.3245C66.2005 18.3364 66.2463 18.3461 66.2893 18.3586L66.2146 18.6743L66.4048 18.7202L66.4795 18.4073C66.5327 18.4215 66.5831 18.4339 66.6312 18.4458L66.5565 18.7565L66.7466 18.8024L66.8214 18.4867C67.1462 18.5445 67.389 18.5178 67.4875 18.2214C67.5668 17.985 67.4802 17.8501 67.307 17.7611C67.4337 17.7322 67.5254 17.65 67.5492 17.4817ZM67.1213 18.0956C67.0659 18.3319 66.6668 18.2089 66.5389 18.1777L66.6374 17.7583C66.7676 17.79 67.1791 17.8479 67.1213 18.0956ZM67.174 17.4817C67.1236 17.696 66.7914 17.5928 66.6833 17.5662L66.7749 17.1858C66.8808 17.2119 67.2272 17.2578 67.174 17.4817Z" fill="#404040"/>
<defs>
<filter id="filter0_bd_197_4114" x="21.071" y="41.4097" width="112.141" height="82.9214" filterUnits="userSpaceOnUse" color-interpolation-filters="sRGB">
<feFlood flood-opacity="0" result="BackgroundImageFix"/>
<feGaussianBlur in="BackgroundImageFix" stdDeviation="4.52"/>
<feComposite in2="SourceAlpha" operator="in" result="effect1_backgroundBlur_197_4114"/>
<feColorMatrix in="SourceAlpha" type="matrix" values="0 0 0 0 0 0 0 0 0 0 0 0 0 0 0 0 0 0 127 0" result="hardAlpha"/>
<feOffset dy="1.50667"/>
<feGaussianBlur stdDeviation="6.59167"/>
<feComposite in2="hardAlpha" operator="out"/>
<feColorMatrix type="matrix" values="0 0 0 0 0 0 0 0 0 0 0 0 0 0 0 0 0 0 0.12 0"/>
<feBlend mode="normal" in2="effect1_backgroundBlur_197_4114" result="effect2_dropShadow_197_4114"/>
<feBlend mode="normal" in="SourceGraphic" in2="effect2_dropShadow_197_4114" result="shape"/>
</filter>
<clipPath id="clip0_197_4114">
<rect x="34.2544" y="38.9478" width="85.7745" height="70.6933" fill="white"/>
</clipPath>
</defs>
</svg>
